<?xml version="1.0" encoding="UTF-8"?>
<svg xmlns="http://www.w3.org/2000/svg" xmlns:xlink="http://www.w3.org/1999/xlink" width="84px" height="49px" viewBox="0 0 83 49" version="1.1">
<g id="surface1">
<path style=" stroke:none;fill-rule:nonzero;fill:rgb(14.509805%,18.431373%,24.313726%);fill-opacity:1;" d="M 23.660156 17.796875 C 23.660156 18.804688 23.769531 19.621094 23.957031 20.222656 C 24.171875 20.820312 24.445312 21.476562 24.824219 22.183594 C 24.957031 22.402344 25.011719 22.621094 25.011719 22.808594 C 25.011719 23.082031 24.851562 23.355469 24.5 23.628906 L 22.792969 24.773438 C 22.550781 24.9375 22.308594 25.019531 22.089844 25.019531 C 21.820312 25.019531 21.550781 24.882812 21.277344 24.636719 C 20.902344 24.226562 20.574219 23.792969 20.304688 23.355469 C 20.035156 22.890625 19.765625 22.375 19.46875 21.746094 C 17.355469 24.253906 14.707031 25.507812 11.515625 25.507812 C 9.242188 25.507812 7.429688 24.855469 6.105469 23.546875 C 4.777344 22.238281 4.101562 20.492188 4.101562 18.3125 C 4.101562 15.996094 4.914062 14.117188 6.5625 12.699219 C 8.214844 11.28125 10.40625 10.574219 13.191406 10.574219 C 14.109375 10.574219 15.058594 10.65625 16.058594 10.792969 C 17.058594 10.929688 18.085938 11.144531 19.167969 11.390625 L 19.167969 9.402344 C 19.167969 7.332031 18.738281 5.886719 17.898438 5.042969 C 17.03125 4.195312 15.570312 3.789062 13.488281 3.789062 C 12.542969 3.789062 11.566406 3.898438 10.566406 4.140625 C 9.566406 4.386719 8.59375 4.6875 7.644531 5.070312 C 7.210938 5.257812 6.886719 5.367188 6.699219 5.421875 C 6.507812 5.476562 6.375 5.503906 6.265625 5.503906 C 5.886719 5.503906 5.699219 5.234375 5.699219 4.660156 L 5.699219 3.324219 C 5.699219 2.890625 5.75 2.5625 5.886719 2.371094 C 6.023438 2.179688 6.265625 1.988281 6.644531 1.796875 C 7.589844 1.308594 8.726562 0.898438 10.054688 0.574219 C 11.378906 0.21875 12.785156 0.0546875 14.273438 0.0546875 C 17.492188 0.0546875 19.84375 0.789062 21.359375 2.261719 C 22.847656 3.734375 23.605469 5.96875 23.605469 8.964844 L 23.605469 17.796875 Z M 12.675781 21.9375 C 13.570312 21.9375 14.488281 21.773438 15.464844 21.449219 C 16.4375 21.121094 17.300781 20.519531 18.03125 19.703125 C 18.464844 19.1875 18.789062 18.613281 18.953125 17.960938 C 19.113281 17.304688 19.222656 16.515625 19.222656 15.589844 L 19.222656 14.445312 C 18.4375 14.253906 17.601562 14.089844 16.734375 13.980469 C 15.867188 13.871094 15.03125 13.816406 14.191406 13.816406 C 12.378906 13.816406 11.054688 14.171875 10.160156 14.90625 C 9.269531 15.644531 8.835938 16.679688 8.835938 18.042969 C 8.835938 19.320312 9.160156 20.277344 9.835938 20.929688 C 10.484375 21.609375 11.433594 21.9375 12.675781 21.9375 Z M 34.398438 24.882812 C 33.914062 24.882812 33.585938 24.800781 33.371094 24.609375 C 33.15625 24.445312 32.964844 24.0625 32.804688 23.546875 L 26.445312 2.480469 C 26.285156 1.933594 26.203125 1.582031 26.203125 1.390625 C 26.203125 0.953125 26.417969 0.707031 26.851562 0.707031 L 29.503906 0.707031 C 30.015625 0.707031 30.367188 0.789062 30.558594 0.980469 C 30.773438 1.144531 30.9375 1.527344 31.097656 2.042969 L 35.644531 20.085938 L 39.863281 2.042969 C 40 1.5 40.160156 1.144531 40.378906 0.980469 C 40.59375 0.816406 40.972656 0.707031 41.460938 0.707031 L 43.625 0.707031 C 44.136719 0.707031 44.488281 0.789062 44.707031 0.980469 C 44.921875 1.144531 45.113281 1.527344 45.21875 2.042969 L 49.492188 20.304688 L 54.171875 2.042969 C 54.335938 1.5 54.523438 1.144531 54.714844 0.980469 C 54.929688 0.816406 55.28125 0.707031 55.769531 0.707031 L 58.285156 0.707031 C 58.71875 0.707031 58.960938 0.925781 58.960938 1.390625 C 58.960938 1.527344 58.933594 1.664062 58.90625 1.824219 C 58.878906 1.988281 58.828125 2.207031 58.71875 2.507812 L 52.199219 23.574219 C 52.035156 24.117188 51.847656 24.472656 51.628906 24.636719 C 51.414062 24.800781 51.0625 24.910156 50.601562 24.910156 L 48.277344 24.910156 C 47.761719 24.910156 47.410156 24.828125 47.195312 24.636719 C 46.976562 24.445312 46.789062 24.089844 46.679688 23.546875 L 42.488281 5.96875 L 38.320312 23.519531 C 38.1875 24.0625 38.023438 24.417969 37.808594 24.609375 C 37.589844 24.800781 37.210938 24.882812 36.726562 24.882812 Z M 69.160156 25.617188 C 67.753906 25.617188 66.347656 25.453125 64.992188 25.125 C 63.640625 24.800781 62.585938 24.445312 61.882812 24.035156 C 61.449219 23.792969 61.152344 23.519531 61.042969 23.273438 C 60.9375 23.027344 60.882812 22.753906 60.882812 22.511719 L 60.882812 21.121094 C 60.882812 20.546875 61.097656 20.277344 61.503906 20.277344 C 61.667969 20.277344 61.828125 20.304688 61.992188 20.359375 C 62.152344 20.414062 62.398438 20.519531 62.667969 20.628906 C 63.585938 21.039062 64.589844 21.367188 65.644531 21.582031 C 66.726562 21.800781 67.78125 21.910156 68.863281 21.910156 C 70.566406 21.910156 71.890625 21.609375 72.8125 21.011719 C 73.730469 20.414062 74.21875 19.539062 74.21875 18.421875 C 74.21875 17.660156 73.976562 17.03125 73.488281 16.515625 C 73 15.996094 72.082031 15.535156 70.753906 15.097656 L 66.832031 13.871094 C 64.859375 13.246094 63.398438 12.316406 62.503906 11.089844 C 61.613281 9.894531 61.152344 8.558594 61.152344 7.140625 C 61.152344 5.996094 61.394531 4.988281 61.882812 4.113281 C 62.371094 3.242188 63.019531 2.480469 63.832031 1.878906 C 64.640625 1.253906 65.5625 0.789062 66.644531 0.464844 C 67.726562 0.136719 68.863281 0 70.050781 0 C 70.648438 0 71.269531 0.0273438 71.863281 0.109375 C 72.488281 0.191406 73.054688 0.300781 73.625 0.410156 C 74.164062 0.546875 74.679688 0.679688 75.164062 0.84375 C 75.652344 1.007812 76.03125 1.171875 76.300781 1.335938 C 76.679688 1.554688 76.949219 1.769531 77.113281 2.015625 C 77.273438 2.234375 77.355469 2.535156 77.355469 2.917969 L 77.355469 4.195312 C 77.355469 4.769531 77.140625 5.070312 76.734375 5.070312 C 76.519531 5.070312 76.167969 4.960938 75.707031 4.742188 C 74.164062 4.035156 72.433594 3.679688 70.511719 3.679688 C 68.96875 3.679688 67.753906 3.925781 66.914062 4.441406 C 66.074219 4.960938 65.644531 5.75 65.644531 6.867188 C 65.644531 7.628906 65.914062 8.285156 66.453125 8.800781 C 66.996094 9.320312 67.996094 9.839844 69.429688 10.300781 L 73.273438 11.527344 C 75.21875 12.15625 76.625 13.027344 77.464844 14.144531 C 78.304688 15.261719 78.707031 16.542969 78.707031 17.960938 C 78.707031 19.132812 78.464844 20.195312 78.003906 21.121094 C 77.519531 22.046875 76.871094 22.863281 76.03125 23.519531 C 75.191406 24.199219 74.191406 24.691406 73.027344 25.046875 C 71.8125 25.425781 70.539062 25.617188 69.160156 25.617188 Z M 69.160156 25.617188 "/>
<path style=" stroke:none;fill-rule:evenodd;fill:rgb(100%,60.000002%,0%);fill-opacity:1;" d="M 74.273438 38.863281 C 65.371094 45.484375 52.441406 49 41.324219 49 C 25.742188 49 11.703125 43.195312 1.097656 33.546875 C 0.261719 32.785156 1.019531 31.75 2.019531 32.347656 C 13.488281 39.054688 27.636719 43.113281 42.269531 43.113281 C 52.144531 43.113281 62.992188 41.042969 72.972656 36.789062 C 74.460938 36.109375 75.734375 37.773438 74.273438 38.863281 Z M 74.273438 38.863281 "/>
<path style=" stroke:none;fill-rule:evenodd;fill:rgb(100%,60.000002%,0%);fill-opacity:1;" d="M 77.976562 34.609375 C 76.84375 33.140625 70.457031 33.902344 67.5625 34.257812 C 66.699219 34.367188 66.5625 33.601562 67.347656 33.03125 C 72.433594 29.433594 80.792969 30.46875 81.765625 31.667969 C 82.738281 32.894531 81.496094 41.316406 76.734375 45.347656 C 76.003906 45.976562 75.300781 45.648438 75.625 44.832031 C 76.707031 42.132812 79.113281 36.054688 77.976562 34.609375 Z M 77.976562 34.609375 "/>
</g>
</svg>
