<?xml version="1.0" encoding="UTF-8"?>
<svg xmlns="http://www.w3.org/2000/svg" xmlns:xlink="http://www.w3.org/1999/xlink" width="84px" height="67px" viewBox="0 0 84 67" version="1.1">
<g id="surface1">
<path style=" stroke:none;fill-rule:evenodd;fill:rgb(47.450981%,32.156864%,70.19608%);fill-opacity:1;" d="M 17.445312 0.0078125 C 12.652344 0.0078125 9.109375 4.207031 9.265625 8.761719 C 9.417969 13.136719 9.222656 18.804688 7.796875 23.425781 C 6.367188 28.058594 3.949219 30.996094 0 31.371094 L 0 35.628906 C 3.949219 36.003906 6.367188 38.941406 7.796875 43.574219 C 9.222656 48.195312 9.417969 53.863281 9.265625 58.238281 C 9.109375 62.792969 12.652344 66.992188 17.449219 66.992188 L 66.558594 66.992188 C 71.351562 66.992188 74.898438 62.792969 74.738281 58.238281 C 74.585938 53.863281 74.785156 48.195312 76.210938 43.574219 C 77.640625 38.941406 80.050781 36.003906 84 35.628906 L 84 31.371094 C 80.050781 30.996094 77.640625 28.058594 76.210938 23.425781 C 74.785156 18.804688 74.585938 13.136719 74.738281 8.761719 C 74.898438 4.207031 71.351562 0.0078125 66.558594 0.0078125 Z M 56.949219 41.242188 C 56.949219 47.511719 52.277344 51.316406 44.523438 51.316406 L 31.320312 51.316406 C 30.535156 51.316406 29.898438 50.675781 29.898438 49.890625 L 29.898438 17.109375 C 29.898438 16.324219 30.535156 15.683594 31.320312 15.683594 L 44.445312 15.683594 C 50.914062 15.683594 55.15625 19.191406 55.15625 24.574219 C 55.15625 28.351562 52.300781 31.734375 48.664062 32.328125 L 48.664062 32.523438 C 53.617188 33.066406 56.949219 36.5 56.949219 41.242188 Z M 43.082031 20.203125 L 35.554688 20.203125 L 35.554688 30.84375 L 41.894531 30.84375 C 46.796875 30.84375 49.5 28.871094 49.5 25.339844 C 49.496094 22.03125 47.175781 20.203125 43.082031 20.203125 Z M 35.554688 35.066406 L 35.554688 46.796875 L 43.359375 46.796875 C 48.460938 46.796875 51.164062 44.746094 51.164062 40.894531 C 51.164062 37.042969 48.386719 35.066406 43.03125 35.066406 Z M 35.554688 35.066406 "/>
</g>
</svg>
