<?xml version="1.0" encoding="UTF-8"?>
<svg xmlns="http://www.w3.org/2000/svg" xmlns:xlink="http://www.w3.org/1999/xlink" width="64px" height="66px" viewBox="0 0 64 66" version="1.1">
<g id="surface1">
<path style=" stroke:none;fill-rule:nonzero;fill:rgb(100%,17.647059%,12.54902%);fill-opacity:1;" d="M 63.851562 15.058594 C 63.875 15.144531 63.886719 15.234375 63.886719 15.328125 L 63.886719 29.40625 C 63.886719 29.773438 63.6875 30.113281 63.367188 30.296875 L 51.519531 37.101562 L 51.519531 50.589844 C 51.519531 50.957031 51.324219 51.292969 51.003906 51.480469 L 26.273438 65.679688 C 26.214844 65.710938 26.15625 65.734375 26.09375 65.753906 C 26.070312 65.761719 26.046875 65.777344 26.023438 65.78125 C 25.851562 65.828125 25.667969 65.828125 25.496094 65.78125 C 25.46875 65.773438 25.441406 65.757812 25.414062 65.75 C 25.359375 65.730469 25.300781 65.710938 25.246094 65.679688 L 0.515625 51.480469 C 0.199219 51.296875 0 50.957031 0 50.589844 L 0 8.347656 C 0 8.253906 0.0117188 8.164062 0.0351562 8.078125 C 0.0429688 8.046875 0.0625 8.019531 0.0703125 7.992188 C 0.0898438 7.9375 0.109375 7.882812 0.136719 7.832031 C 0.15625 7.796875 0.183594 7.773438 0.207031 7.742188 C 0.238281 7.699219 0.265625 7.65625 0.300781 7.621094 C 0.328125 7.59375 0.367188 7.570312 0.402344 7.542969 C 0.4375 7.515625 0.472656 7.480469 0.515625 7.457031 L 12.878906 0.355469 C 13.199219 0.171875 13.589844 0.171875 13.910156 0.355469 L 26.273438 7.457031 L 26.277344 7.457031 C 26.316406 7.480469 26.351562 7.515625 26.390625 7.542969 C 26.421875 7.570312 26.460938 7.59375 26.492188 7.621094 C 26.527344 7.65625 26.550781 7.699219 26.582031 7.742188 C 26.605469 7.773438 26.632812 7.796875 26.652344 7.832031 C 26.683594 7.882812 26.699219 7.9375 26.71875 7.992188 C 26.730469 8.019531 26.746094 8.046875 26.753906 8.078125 C 26.777344 8.164062 26.792969 8.257812 26.792969 8.347656 L 26.792969 34.730469 L 37.09375 28.8125 L 37.09375 15.324219 C 37.09375 15.234375 37.109375 15.144531 37.128906 15.058594 C 37.140625 15.027344 37.15625 15 37.167969 14.972656 C 37.1875 14.917969 37.207031 14.863281 37.234375 14.8125 C 37.253906 14.777344 37.28125 14.75 37.304688 14.722656 C 37.335938 14.679688 37.359375 14.636719 37.394531 14.601562 C 37.425781 14.570312 37.460938 14.550781 37.496094 14.523438 C 37.535156 14.492188 37.566406 14.460938 37.609375 14.4375 L 49.976562 7.335938 C 50.296875 7.152344 50.6875 7.152344 51.003906 7.335938 L 63.371094 14.4375 C 63.414062 14.460938 63.449219 14.492188 63.484375 14.523438 C 63.519531 14.550781 63.554688 14.570312 63.585938 14.601562 C 63.621094 14.636719 63.648438 14.679688 63.679688 14.722656 C 63.699219 14.75 63.730469 14.777344 63.746094 14.8125 C 63.777344 14.863281 63.792969 14.917969 63.8125 14.972656 C 63.824219 15 63.84375 15.027344 63.851562 15.058594 Z M 61.824219 28.8125 L 61.824219 17.105469 L 57.5 19.589844 L 51.519531 23.019531 L 51.519531 34.730469 L 61.828125 28.8125 Z M 49.460938 49.992188 L 49.460938 38.277344 L 43.582031 41.625 L 26.789062 51.183594 L 26.789062 63.011719 Z M 2.0625 10.125 L 2.0625 49.992188 L 24.730469 63.011719 L 24.730469 51.1875 L 12.886719 44.5 L 12.882812 44.5 L 12.878906 44.496094 C 12.839844 44.472656 12.804688 44.441406 12.765625 44.410156 C 12.734375 44.386719 12.699219 44.367188 12.667969 44.335938 L 12.667969 44.332031 C 12.632812 44.300781 12.609375 44.261719 12.582031 44.226562 C 12.554688 44.191406 12.523438 44.160156 12.503906 44.125 L 12.503906 44.121094 C 12.480469 44.082031 12.464844 44.035156 12.449219 43.992188 C 12.433594 43.953125 12.410156 43.917969 12.402344 43.878906 L 12.402344 43.875 C 12.386719 43.828125 12.386719 43.777344 12.378906 43.726562 C 12.375 43.6875 12.363281 43.648438 12.363281 43.609375 L 12.363281 16.042969 L 6.386719 12.605469 Z M 13.394531 2.433594 L 3.09375 8.347656 L 13.394531 14.261719 L 23.695312 8.34375 Z M 18.753906 39.34375 L 24.730469 35.914062 L 24.730469 10.125 L 20.402344 12.609375 L 14.425781 16.042969 L 14.425781 41.832031 Z M 50.492188 9.410156 L 40.191406 15.328125 L 50.492188 21.242188 L 60.789062 15.324219 Z M 49.460938 23.019531 L 43.484375 19.589844 L 39.15625 17.105469 L 39.15625 28.8125 L 45.132812 32.246094 L 49.460938 34.730469 Z M 25.757812 49.40625 L 40.867188 40.804688 L 48.417969 36.503906 L 38.125 30.59375 L 26.277344 37.398438 L 15.472656 43.601562 Z M 25.757812 49.40625 "/>
</g>
</svg>
