<?xml version="1.0" encoding="UTF-8"?>
<svg xmlns="http://www.w3.org/2000/svg" xmlns:xlink="http://www.w3.org/1999/xlink" width="84px" height="95px" viewBox="0 0 84 94" version="1.1">
<g id="surface1">
<path style=" stroke:none;fill-rule:nonzero;fill:rgb(40.000001%,30.980393%,26.666668%);fill-opacity:1;" d="M 80.625 85.023438 C 80.324219 85.320312 79.949219 85.46875 79.5 85.46875 C 79.050781 85.46875 78.675781 85.320312 78.375 85.023438 C 78.078125 84.726562 77.925781 84.355469 77.925781 83.910156 C 77.925781 83.464844 78.078125 83.058594 78.414062 82.761719 C 78.714844 82.464844 79.089844 82.351562 79.5 82.351562 C 79.949219 82.351562 80.324219 82.5 80.625 82.796875 C 80.925781 83.09375 81.074219 83.464844 81.074219 83.910156 C 81.113281 84.355469 80.960938 84.726562 80.625 85.023438 M 78.601562 82.984375 C 78.339844 83.242188 78.226562 83.539062 78.226562 83.871094 C 78.226562 84.242188 78.339844 84.539062 78.601562 84.800781 C 78.863281 85.058594 79.164062 85.171875 79.539062 85.171875 C 79.914062 85.171875 80.214844 85.058594 80.476562 84.800781 C 80.738281 84.539062 80.851562 84.242188 80.851562 83.871094 C 80.851562 83.539062 80.738281 83.207031 80.476562 82.984375 C 80.214844 82.722656 79.914062 82.574219 79.539062 82.574219 C 79.164062 82.613281 78.863281 82.722656 78.601562 82.984375 M 80.027344 84.6875 C 79.875 84.800781 79.726562 84.835938 79.574219 84.835938 C 79.351562 84.835938 79.125 84.761719 78.9375 84.578125 C 78.75 84.390625 78.675781 84.167969 78.675781 83.910156 C 78.675781 83.648438 78.75 83.429688 78.902344 83.242188 C 79.050781 83.058594 79.277344 82.984375 79.539062 82.984375 C 79.6875 82.984375 79.839844 83.019531 79.988281 83.09375 C 80.175781 83.207031 80.324219 83.390625 80.363281 83.6875 L 79.949219 83.6875 C 79.914062 83.574219 79.875 83.464844 79.800781 83.429688 C 79.726562 83.390625 79.652344 83.355469 79.574219 83.355469 C 79.464844 83.355469 79.351562 83.390625 79.277344 83.503906 C 79.199219 83.613281 79.164062 83.761719 79.164062 83.945312 C 79.164062 84.132812 79.199219 84.28125 79.277344 84.355469 C 79.351562 84.429688 79.464844 84.503906 79.574219 84.503906 C 79.6875 84.503906 79.761719 84.464844 79.839844 84.429688 L 79.949219 84.207031 L 80.324219 84.207031 C 80.289062 84.429688 80.175781 84.578125 80.027344 84.6875 M 84 68.21875 C 84 68.070312 83.960938 67.921875 83.960938 67.773438 C 83.960938 67.664062 83.921875 67.589844 83.921875 67.515625 C 83.886719 67.292969 83.847656 67.105469 83.773438 66.882812 C 83.625 66.476562 83.398438 66.066406 83.097656 65.734375 C 82.800781 65.398438 82.460938 65.140625 82.125 64.953125 C 81.75 64.769531 81.375 64.65625 81.074219 64.582031 C 80.960938 64.582031 80.886719 64.546875 80.8125 64.546875 C 81.226562 62.765625 80.699219 61.394531 80.363281 60.761719 L 80.4375 60.6875 C 80.886719 60.242188 81.261719 59.835938 81.601562 59.425781 L 81.675781 59.351562 C 81.9375 58.980469 82.085938 58.609375 82.199219 58.277344 C 82.273438 57.980469 82.347656 57.71875 82.347656 57.460938 L 82.347656 56.757812 C 82.3125 56.199219 82.238281 55.496094 81.863281 54.714844 C 81.675781 54.34375 81.414062 53.9375 81.074219 53.566406 C 80.738281 53.195312 80.324219 52.859375 79.839844 52.601562 C 79.800781 52.5625 79.761719 52.5625 79.726562 52.527344 C 78.714844 51.082031 77.589844 49.929688 76.578125 49.078125 C 76.050781 48.632812 75.566406 48.261719 75.152344 47.964844 C 74.742188 47.667969 74.402344 47.445312 74.214844 47.296875 C 73.765625 46.964844 73.429688 46.777344 73.277344 46.703125 C 72.902344 46.480469 72.640625 46.296875 72.492188 46.183594 C 72.378906 46.074219 72.304688 46.035156 72.265625 46 C 72.265625 46 72.265625 45.960938 72.230469 45.886719 C 72.191406 45.777344 72.191406 45.628906 72.191406 45.367188 C 72.191406 44.996094 72.191406 44.441406 72.230469 43.699219 C 72.304688 42.511719 72.417969 40.917969 72.566406 38.726562 C 72.605469 38.023438 72.605469 37.355469 72.605469 36.761719 C 72.566406 35.761719 72.417969 34.871094 72.230469 34.054688 C 72.191406 33.867188 72.117188 33.683594 72.078125 33.496094 C 72.042969 33.347656 72.003906 33.273438 71.96875 33.199219 C 71.929688 33.089844 71.890625 32.976562 71.816406 32.828125 C 71.78125 32.753906 71.78125 32.679688 71.703125 32.605469 C 71.628906 32.421875 71.554688 32.234375 71.441406 32.050781 L 71.40625 32.011719 L 71.367188 31.902344 L 71.328125 31.828125 C 71.140625 31.492188 70.917969 31.199219 70.691406 30.9375 C 70.582031 30.417969 70.394531 29.675781 70.054688 28.824219 C 69.753906 28.082031 69.378906 27.265625 68.820312 26.449219 C 68.632812 26.152344 68.40625 25.894531 68.179688 25.632812 L 68.257812 25.558594 C 68.367188 25.449219 70.992188 22.703125 73.089844 19.140625 C 76.953125 12.5 75.675781 8.457031 73.914062 6.230469 L 73.878906 6.15625 L 73.839844 6.082031 C 72.15625 4.230469 69.832031 3.117188 67.019531 2.746094 C 61.132812 2.003906 54.460938 4.898438 52.699219 5.710938 L 49.476562 2.226562 C 49.179688 1.929688 48.878906 1.632812 48.539062 1.410156 C 48.203125 1.1875 47.828125 0.964844 47.453125 0.777344 C 46.703125 0.445312 45.878906 0.222656 44.980469 0.109375 C 43.21875 -0.109375 41.195312 0.109375 39.019531 0.667969 C 35.757812 1.484375 32.125 3.117188 28.300781 5.378906 C 24.476562 7.640625 20.503906 10.570312 16.644531 14.058594 C 11.921875 18.289062 8.023438 22.777344 5.175781 27.078125 C 3.75 29.195312 2.585938 31.273438 1.726562 33.273438 C 0.863281 35.242188 0.300781 37.132812 0.078125 38.839844 C -0.0742188 40.101562 -0.0742188 41.289062 0.1875 42.363281 C 0.300781 42.84375 0.449219 43.289062 0.675781 43.734375 C 0.9375 44.292969 1.277344 44.8125 1.6875 45.257812 L 5.023438 48.707031 L 5.398438 49.078125 L 5.359375 49.113281 L 5.25 49.335938 C 5.175781 49.449219 5.136719 49.558594 5.0625 49.632812 L 4.949219 49.855469 C 4.910156 49.96875 4.835938 50.078125 4.800781 50.191406 L 4.6875 50.414062 C 4.648438 50.523438 4.574219 50.636719 4.535156 50.746094 C 4.5 50.820312 4.460938 50.894531 4.460938 50.96875 L 4.347656 51.304688 C 4.3125 51.378906 4.3125 51.453125 4.273438 51.527344 C 4.238281 51.636719 4.199219 51.75 4.160156 51.898438 C 4.160156 51.933594 4.125 51.972656 4.125 52.007812 C 4.125 52.046875 4.085938 52.082031 4.085938 52.121094 C 4.050781 52.230469 4.011719 52.378906 3.972656 52.488281 C 3.972656 52.5625 3.9375 52.636719 3.9375 52.710938 C 3.9375 52.75 3.898438 52.824219 3.898438 52.859375 C 3.898438 52.933594 3.863281 53.007812 3.863281 53.082031 C 3.863281 53.15625 3.824219 53.230469 3.824219 53.304688 C 3.785156 53.453125 3.785156 53.601562 3.75 53.789062 C 3.75 53.824219 3.75 53.863281 3.710938 53.9375 L 3.710938 53.972656 C 3.710938 54.085938 3.675781 54.195312 3.675781 54.269531 C 3.675781 54.417969 3.636719 54.605469 3.636719 54.753906 L 3.636719 56.609375 C 3.636719 56.683594 3.636719 56.757812 3.675781 56.832031 C 3.675781 56.90625 3.675781 57.015625 3.710938 57.128906 L 3.710938 57.238281 C 3.710938 57.3125 3.75 57.425781 3.75 57.496094 C 3.75 57.570312 3.785156 57.644531 3.785156 57.757812 C 3.785156 57.792969 3.785156 57.832031 3.824219 57.867188 C 3.824219 57.90625 3.863281 57.980469 3.863281 58.015625 L 3.863281 58.089844 C 3.863281 58.164062 3.898438 58.238281 3.9375 58.386719 C 3.9375 58.425781 3.9375 58.425781 3.972656 58.460938 C 4.011719 58.535156 4.011719 58.609375 4.011719 58.648438 L 4.050781 58.722656 C 4.050781 58.757812 4.050781 58.757812 4.085938 58.796875 L 4.125 58.871094 L 4.125 58.980469 C 4.125 59.019531 4.125 59.019531 4.160156 59.054688 L 4.199219 59.128906 C 4.199219 59.203125 4.238281 59.242188 4.238281 59.316406 C 4.273438 59.390625 4.273438 59.464844 4.3125 59.613281 L 4.3125 59.574219 L 4.3125 59.613281 C 4.3125 59.648438 4.3125 59.648438 4.347656 59.6875 C 4.386719 59.796875 4.425781 59.871094 4.425781 59.910156 C 4.460938 59.984375 4.5 60.058594 4.535156 60.207031 L 4.574219 60.242188 C 4.613281 60.316406 4.613281 60.390625 4.648438 60.429688 L 4.6875 60.503906 C 4.6875 60.539062 4.722656 60.578125 4.722656 60.613281 C 4.722656 60.652344 4.761719 60.726562 4.800781 60.761719 L 4.835938 60.835938 C 4.875 60.875 4.875 60.949219 4.910156 60.984375 C 4.949219 61.023438 4.949219 61.058594 4.949219 61.097656 C 4.988281 61.171875 5.023438 61.246094 5.0625 61.355469 L 5.097656 61.394531 C 5.136719 61.429688 5.136719 61.46875 5.175781 61.503906 C 5.210938 61.542969 5.210938 61.617188 5.25 61.652344 C 5.285156 61.691406 5.324219 61.765625 5.359375 61.875 L 5.398438 61.914062 C 5.4375 61.949219 5.4375 61.988281 5.472656 62.023438 C 5.511719 62.097656 5.546875 62.136719 5.546875 62.171875 C 5.585938 62.210938 5.625 62.285156 5.660156 62.359375 L 5.660156 62.394531 C 5.699219 62.433594 5.699219 62.46875 5.734375 62.507812 C 5.773438 62.582031 5.8125 62.617188 5.847656 62.65625 C 5.886719 62.691406 5.921875 62.765625 6 62.875 C 6.035156 62.914062 6.074219 62.949219 6.074219 62.988281 C 6.109375 63.0625 6.148438 63.097656 6.1875 63.136719 C 6.222656 63.171875 6.261719 63.246094 6.296875 63.320312 C 6.335938 63.359375 6.375 63.433594 6.410156 63.46875 C 6.449219 63.542969 6.484375 63.582031 6.5625 63.617188 L 6.671875 63.730469 L 6.710938 63.765625 C 6.785156 63.839844 6.824219 63.914062 6.898438 63.988281 L 7.308594 64.398438 L 7.386719 64.472656 L 7.535156 64.621094 C 7.609375 64.695312 7.722656 64.769531 7.796875 64.878906 L 7.835938 64.917969 C 7.871094 64.953125 7.910156 64.953125 7.949219 65.027344 C 8.058594 65.140625 8.171875 65.214844 8.285156 65.324219 L 8.359375 65.363281 L 8.398438 65.398438 L 8.472656 65.4375 C 8.585938 65.511719 8.660156 65.585938 8.773438 65.660156 L 8.808594 65.695312 C 8.847656 65.734375 8.882812 65.734375 8.882812 65.734375 L 8.960938 65.808594 C 9.035156 65.882812 9.109375 65.917969 9.183594 65.992188 L 9.257812 66.03125 L 9.335938 66.105469 L 9.371094 66.140625 C 9.445312 66.179688 9.558594 66.253906 9.632812 66.289062 C 9.671875 66.328125 9.710938 66.363281 9.785156 66.363281 L 9.859375 66.402344 L 9.898438 66.4375 L 9.933594 66.4375 C 10.085938 66.511719 10.195312 66.585938 10.308594 66.660156 L 10.382812 66.699219 L 10.832031 66.921875 L 10.871094 66.921875 L 10.945312 66.957031 L 11.171875 67.070312 C 11.207031 67.070312 11.246094 67.105469 11.285156 67.105469 C 11.320312 67.144531 11.359375 67.144531 11.433594 67.179688 L 11.472656 67.179688 C 11.546875 67.21875 11.621094 67.253906 11.695312 67.253906 L 11.734375 67.253906 C 11.808594 67.292969 11.882812 67.328125 11.996094 67.367188 L 12.03125 67.367188 L 12.109375 67.402344 C 12.144531 67.402344 12.183594 67.441406 12.21875 67.441406 L 12.257812 67.441406 C 12.371094 67.476562 12.484375 67.515625 12.632812 67.550781 L 12.671875 67.550781 C 12.859375 67.625 13.046875 67.664062 13.234375 67.699219 L 13.269531 67.699219 C 13.417969 67.738281 13.605469 67.773438 13.757812 67.8125 L 13.90625 67.8125 C 14.058594 67.847656 14.207031 67.886719 14.355469 67.886719 L 14.507812 67.886719 C 14.621094 67.886719 14.695312 67.921875 14.808594 67.921875 C 14.808594 67.957031 14.84375 67.996094 14.84375 68.03125 C 15.105469 68.738281 15.367188 69.441406 15.667969 70.109375 C 20.089844 82.242188 32.347656 91.664062 46.328125 93.40625 C 60.308594 95.113281 75.265625 85.914062 81.335938 73.484375 C 81.601562 73.003906 81.824219 72.558594 82.050781 72.078125 C 82.648438 71.445312 83.136719 70.816406 83.4375 70.148438 C 83.921875 69.738281 84.035156 68.921875 84 68.21875 M 6.375 63.394531 L 6.410156 63.394531 L 6.375 63.394531 "/>
<path style=" stroke:none;fill-rule:nonzero;fill:rgb(7.450981%,12.941177%,20.392157%);fill-opacity:1;" d="M 72.042969 7.53125 C 71.367188 6.789062 70.582031 6.230469 69.71875 5.824219 C 69.566406 5.75 69.417969 5.710938 69.230469 5.675781 C 69.15625 5.636719 69.082031 5.5625 69.003906 5.527344 C 68.257812 5.230469 67.46875 5.046875 66.644531 4.933594 C 62.597656 4.414062 57.949219 5.898438 55.324219 6.9375 C 55.175781 7.011719 55.023438 7.046875 54.875 7.121094 C 54.648438 7.234375 54.425781 7.308594 54.199219 7.417969 C 53.824219 7.566406 53.449219 7.753906 53.039062 7.9375 C 52.964844 7.976562 52.925781 7.976562 52.851562 8.011719 L 52.140625 7.195312 L 51.800781 6.824219 L 51.5 6.492188 L 51.390625 6.34375 L 48.652344 3.226562 L 48.429688 2.96875 L 48.128906 2.632812 L 48.089844 2.632812 L 47.304688 2.820312 L 46.402344 3.003906 C 45.917969 2.78125 45.316406 2.632812 44.640625 2.523438 C 43.292969 2.335938 41.570312 2.523438 39.621094 3.003906 C 37.671875 3.488281 35.460938 4.339844 33.136719 5.488281 C 28.449219 7.789062 23.277344 11.3125 18.253906 15.839844 C 16.492188 17.398438 14.882812 19.03125 13.382812 20.625 C 11.921875 22.183594 10.609375 23.777344 9.410156 25.300781 C 6.972656 28.453125 5.136719 31.492188 3.9375 34.238281 C 3.148438 36.058594 2.664062 37.726562 2.476562 39.171875 C 2.324219 40.210938 2.363281 41.140625 2.550781 41.878906 C 2.625 42.140625 2.699219 42.324219 2.773438 42.546875 C 2.960938 42.992188 3.1875 43.363281 3.488281 43.699219 L 6.523438 46.851562 L 6.859375 47.183594 L 6.898438 47.148438 C 6.972656 47.035156 7.085938 46.925781 7.199219 46.851562 L 7.347656 46.703125 C 7.421875 46.59375 7.535156 46.519531 7.609375 46.40625 C 7.683594 46.332031 7.722656 46.296875 7.796875 46.257812 C 7.871094 46.222656 7.910156 46.148438 7.984375 46.109375 L 8.058594 46.035156 C 8.136719 46 8.171875 45.925781 8.246094 45.886719 C 8.324219 45.8125 8.433594 45.738281 8.507812 45.664062 C 8.546875 45.628906 8.621094 45.589844 8.660156 45.554688 L 8.695312 45.554688 C 8.808594 45.480469 8.882812 45.40625 8.996094 45.332031 C 9.070312 45.292969 9.109375 45.257812 9.183594 45.183594 C 9.296875 45.109375 9.371094 45.035156 9.484375 44.960938 C 9.558594 44.921875 9.597656 44.886719 9.671875 44.847656 C 9.785156 44.773438 9.898438 44.699219 10.007812 44.664062 C 10.085938 44.625 10.121094 44.589844 10.195312 44.550781 C 10.308594 44.476562 10.421875 44.441406 10.535156 44.367188 C 10.609375 44.328125 10.644531 44.292969 10.722656 44.253906 L 10.796875 44.21875 C 10.910156 44.179688 10.984375 44.105469 11.097656 44.070312 C 11.132812 44.03125 11.207031 44.03125 11.246094 43.996094 C 11.320312 43.957031 11.394531 43.921875 11.507812 43.882812 L 11.734375 43.773438 L 11.808594 43.734375 L 12.371094 43.511719 C 12.445312 43.476562 12.484375 43.476562 12.558594 43.4375 C 12.632812 43.402344 12.671875 43.402344 12.746094 43.363281 L 12.820312 43.328125 C 12.859375 43.328125 12.894531 43.289062 12.933594 43.289062 C 13.007812 43.253906 13.082031 43.253906 13.195312 43.214844 L 13.269531 43.214844 C 13.382812 43.179688 13.457031 43.179688 13.570312 43.140625 C 13.644531 43.105469 13.757812 43.105469 13.832031 43.066406 C 13.945312 43.03125 14.058594 43.03125 14.167969 42.992188 C 14.207031 42.992188 14.246094 42.957031 14.320312 42.957031 C 14.355469 42.957031 14.433594 42.957031 14.46875 42.917969 C 14.582031 42.882812 14.695312 42.882812 14.808594 42.882812 C 14.917969 42.882812 14.996094 42.84375 15.105469 42.84375 C 15.179688 42.84375 15.257812 42.808594 15.332031 42.808594 L 15.632812 42.808594 C 16.007812 42.808594 16.457031 42.808594 16.90625 42.84375 L 16.980469 42.84375 C 17.429688 42.882812 17.957031 42.957031 18.480469 43.066406 C 18.59375 43.105469 18.742188 43.105469 18.855469 43.140625 C 18.890625 43.105469 18.890625 43.03125 18.929688 42.992188 C 19.230469 42.511719 19.492188 41.992188 19.792969 41.511719 C 21.480469 38.726562 23.277344 36.28125 25.113281 34.128906 C 25.75 33.386719 26.390625 32.71875 27.027344 32.050781 C 29.6875 29.304688 32.347656 27.191406 34.746094 25.558594 C 35.273438 25.1875 35.835938 24.855469 36.320312 24.519531 C 37.035156 24.074219 37.707031 23.703125 38.34375 23.332031 C 38.871094 23.035156 39.359375 22.777344 39.84375 22.554688 C 40.632812 22.144531 41.34375 21.8125 41.980469 21.550781 L 42.542969 21.328125 C 42.804688 21.21875 43.066406 21.105469 43.292969 21.03125 C 43.105469 20.996094 42.878906 20.996094 42.695312 20.996094 L 41.945312 20.996094 C 41.757812 20.996094 41.53125 20.996094 41.34375 21.03125 C 40.96875 21.070312 40.558594 21.105469 40.144531 21.144531 C 39.996094 21.179688 39.882812 21.179688 39.730469 21.21875 C 40.746094 20.699219 41.757812 20.328125 42.695312 20.03125 C 43.332031 19.847656 43.96875 19.699219 44.566406 19.585938 C 45.390625 19.4375 46.179688 19.328125 46.890625 19.289062 C 47.378906 19.253906 47.828125 19.253906 48.242188 19.253906 C 48.652344 19.253906 49.066406 19.289062 49.402344 19.289062 C 50.640625 19.363281 51.390625 19.550781 51.390625 19.550781 C 51.203125 19.289062 50.976562 19.105469 50.753906 18.917969 C 50.300781 18.585938 49.816406 18.363281 49.363281 18.175781 C 49.179688 18.101562 49.027344 18.066406 48.878906 17.992188 C 48.765625 17.953125 48.652344 17.917969 48.578125 17.917969 C 48.804688 17.878906 48.992188 17.84375 49.179688 17.84375 C 49.402344 17.804688 49.589844 17.804688 49.816406 17.769531 C 51.578125 17.621094 53.152344 17.769531 54.3125 17.953125 C 55.699219 18.214844 56.5625 18.546875 56.5625 18.546875 C 56.375 18.175781 56.074219 17.84375 55.738281 17.546875 C 55.511719 17.359375 55.25 17.175781 55.023438 17.027344 C 55.511719 17.136719 55.925781 17.25 56.375 17.398438 C 57.5 17.730469 58.4375 18.140625 59.183594 18.472656 L 59.859375 18.808594 C 59.933594 18.84375 59.972656 18.882812 60.011719 18.882812 C 60.683594 19.253906 61.058594 19.511719 61.058594 19.511719 C 60.945312 19.105469 60.722656 18.734375 60.421875 18.398438 C 60.347656 18.324219 60.273438 18.214844 60.199219 18.140625 L 60.234375 18.140625 C 60.273438 18.140625 60.308594 18.175781 60.386719 18.175781 C 60.421875 18.175781 60.496094 18.214844 60.574219 18.25 C 60.871094 18.363281 61.320312 18.546875 61.847656 18.808594 C 61.882812 18.808594 61.882812 18.84375 61.921875 18.84375 L 62.148438 18.957031 C 62.335938 19.066406 62.519531 19.140625 62.707031 19.289062 L 63.269531 19.625 C 63.382812 19.699219 63.457031 19.734375 63.570312 19.808594 C 63.757812 19.957031 63.984375 20.105469 64.171875 20.292969 C 64.394531 20.476562 64.582031 20.664062 64.769531 20.847656 L 64.882812 20.957031 C 65.03125 21.105469 65.183594 21.253906 65.296875 21.402344 C 65.558594 21.699219 65.78125 22.035156 66.007812 22.367188 C 66.269531 22.777344 66.457031 23.257812 66.644531 23.742188 C 66.644531 23.777344 66.644531 23.816406 66.683594 23.816406 C 66.792969 23.703125 67.019531 23.480469 67.28125 23.183594 C 69.457031 20.664062 75.976562 12.5 72.042969 7.53125 "/>
<path style=" stroke:none;fill-rule:nonzero;fill:rgb(56.470591%,41.176471%,29.803923%);fill-opacity:1;" d="M 81.75 68.476562 C 81.75 68.476562 81.824219 67.921875 81.523438 67.402344 C 81.523438 67.367188 81.488281 67.328125 81.488281 67.328125 L 81.449219 67.292969 L 81.335938 67.179688 C 81.261719 67.105469 81.1875 67.03125 81.074219 66.957031 C 81.039062 66.921875 80.960938 66.882812 80.886719 66.847656 C 80.699219 66.773438 80.511719 66.699219 80.25 66.660156 C 80.0625 66.625 79.875 66.625 79.652344 66.625 L 79.351562 66.625 L 79.351562 66.699219 C 79.351562 66.734375 79.386719 66.773438 79.386719 66.847656 C 79.386719 66.882812 79.386719 66.921875 79.425781 66.921875 C 79.464844 67.03125 79.5 67.21875 79.539062 67.367188 C 79.539062 67.367188 79.539062 67.402344 79.5 67.476562 L 79.5 67.515625 C 79.386719 67.773438 79.089844 68.367188 78.414062 69.109375 C 78.300781 69.257812 78.1875 69.367188 78.039062 69.515625 C 76.164062 71.445312 72.117188 74.152344 63.570312 75.675781 C 60.683594 76.082031 57.984375 76.121094 55.738281 75.824219 C 52.363281 75.414062 49.851562 74.339844 48.652344 72.894531 C 48.539062 72.78125 48.464844 72.632812 48.351562 72.523438 C 48.277344 72.410156 48.242188 72.335938 48.164062 72.226562 C 48.128906 72.1875 48.128906 72.152344 48.089844 72.113281 C 47.605469 71.222656 47.378906 70.257812 47.378906 69.332031 C 47.378906 68.179688 47.753906 67.105469 48.351562 66.289062 C 48.839844 65.621094 49.476562 65.101562 50.265625 64.878906 C 50.640625 64.769531 51.050781 64.695312 51.464844 64.730469 C 51.539062 64.730469 51.652344 64.730469 51.800781 64.769531 C 52.0625 64.804688 52.476562 64.84375 52.964844 64.917969 C 53 64.917969 53.074219 64.917969 53.113281 64.953125 C 54.726562 65.140625 57.273438 65.398438 60.347656 65.214844 C 65.96875 64.878906 73.355469 63.136719 80.0625 57.128906 L 80.0625 57.089844 C 80.101562 56.570312 80.027344 55.679688 79.386719 54.976562 C 79.277344 54.863281 79.164062 54.753906 79.011719 54.640625 C 78.9375 54.566406 78.824219 54.53125 78.75 54.457031 C 78.640625 54.417969 78.5625 54.34375 78.488281 54.308594 L 78.152344 54.085938 L 78.152344 54.046875 C 78.113281 53.972656 78.078125 53.898438 78 53.824219 C 76.277344 51.230469 73.878906 49.707031 72.902344 49.003906 C 72.453125 48.667969 72.15625 48.519531 72.15625 48.519531 C 70.09375 47.257812 69.792969 46.851562 69.980469 43.476562 C 70.054688 42.25 70.167969 40.65625 70.316406 38.46875 C 70.316406 38.171875 70.355469 37.910156 70.355469 37.652344 L 70.355469 36.574219 C 70.355469 36.390625 70.316406 36.207031 70.316406 36.058594 C 70.316406 35.984375 70.316406 35.910156 70.28125 35.835938 C 70.242188 35.648438 70.242188 35.464844 70.207031 35.277344 C 70.207031 35.203125 70.167969 35.09375 70.167969 35.019531 C 70.167969 34.90625 70.128906 34.832031 70.09375 34.722656 C 70.054688 34.648438 70.054688 34.535156 70.019531 34.460938 C 69.980469 34.351562 69.941406 34.238281 69.941406 34.128906 C 69.941406 34.089844 69.90625 34.054688 69.90625 34.015625 C 69.90625 33.980469 69.867188 33.941406 69.867188 33.90625 L 69.867188 33.867188 L 69.832031 33.757812 C 69.792969 33.683594 69.753906 33.609375 69.753906 33.535156 L 69.753906 33.496094 L 69.71875 33.421875 L 69.679688 33.347656 C 69.605469 33.199219 69.566406 33.050781 69.492188 32.941406 L 69.457031 32.828125 C 69.378906 32.71875 69.304688 32.570312 69.230469 32.457031 L 69.191406 32.421875 L 69.15625 32.382812 C 69.082031 32.308594 69.042969 32.234375 68.96875 32.160156 L 68.894531 32.050781 C 68.820312 31.9375 68.742188 31.863281 68.667969 31.789062 L 68.667969 31.492188 C 68.632812 31.34375 68.59375 31.160156 68.554688 30.976562 C 68.554688 30.9375 68.519531 30.863281 68.519531 30.828125 L 68.519531 30.789062 C 68.519531 30.714844 68.480469 30.679688 68.480469 30.605469 C 68.445312 30.457031 68.40625 30.308594 68.332031 30.160156 C 68.332031 30.121094 68.292969 30.046875 68.292969 30.011719 L 68.179688 29.675781 C 68.144531 29.601562 68.144531 29.527344 68.105469 29.492188 C 68.070312 29.378906 68.03125 29.269531 67.957031 29.15625 L 67.84375 28.933594 C 67.804688 28.824219 67.730469 28.710938 67.695312 28.601562 L 67.582031 28.378906 C 67.507812 28.265625 67.46875 28.15625 67.394531 28.042969 L 67.28125 27.820312 C 67.207031 27.710938 67.132812 27.597656 67.058594 27.449219 C 67.019531 27.375 66.980469 27.339844 66.945312 27.265625 C 66.90625 27.226562 66.871094 27.152344 66.832031 27.117188 C 66.71875 27.003906 66.644531 26.894531 66.53125 26.78125 L 66.457031 26.746094 C 66.308594 26.597656 66.195312 26.449219 66.042969 26.335938 L 66.007812 26.300781 C 65.933594 26.261719 65.855469 26.1875 65.820312 26.152344 L 65.78125 26.152344 C 65.707031 26.113281 65.671875 26.078125 65.59375 26.042969 L 65.558594 26.003906 C 65.484375 25.96875 65.371094 25.894531 65.21875 25.820312 C 65.183594 25.78125 65.109375 25.78125 65.03125 25.746094 C 64.695312 25.632812 64.28125 25.484375 63.757812 25.335938 C 63.722656 25.335938 63.683594 25.335938 63.644531 25.300781 C 63.234375 25.1875 62.746094 25.078125 62.222656 25.003906 C 62.035156 24.964844 61.882812 24.964844 61.695312 24.929688 C 61.621094 24.929688 61.546875 24.929688 61.433594 24.890625 L 61.320312 24.890625 C 60.910156 24.855469 60.535156 24.816406 60.121094 24.816406 L 60.085938 24.816406 C 59.558594 24.816406 59.035156 24.855469 58.546875 24.964844 C 58.660156 24.78125 59 24.558594 59.296875 24.371094 C 59.710938 24.148438 60.085938 24 60.085938 24 C 59.859375 24 59.636719 24.039062 59.410156 24.074219 C 59.335938 24.074219 59.261719 24.113281 59.183594 24.113281 C 59.148438 24.113281 59.074219 24.113281 59.035156 24.148438 L 59 24.148438 C 58.960938 24.148438 58.921875 24.148438 58.886719 24.1875 C 57.722656 24.445312 56.597656 24.855469 55.960938 25.113281 L 55.738281 25.226562 L 55.699219 25.226562 C 55.625 25.226562 55.585938 25.226562 55.511719 25.261719 C 55.960938 24.410156 56.636719 23.964844 57.160156 23.742188 C 57.238281 23.703125 57.347656 23.667969 57.425781 23.628906 C 57.460938 23.628906 57.460938 23.628906 57.5 23.59375 C 57.574219 23.554688 57.648438 23.554688 57.6875 23.519531 C 57.796875 23.480469 57.875 23.480469 57.875 23.480469 L 57.273438 23.480469 C 56 23.628906 54.835938 24.039062 53.863281 24.59375 C 53.1875 24.964844 52.589844 25.375 52.0625 25.78125 C 51.914062 25.820312 51.800781 25.855469 51.652344 25.855469 C 50.226562 26.152344 48.617188 26.523438 46.929688 27.042969 C 46.292969 27.226562 45.65625 27.449219 45.015625 27.671875 C 44.53125 27.859375 44.003906 28.042969 43.519531 28.230469 C 43.144531 28.378906 42.804688 28.527344 42.429688 28.675781 C 39.84375 29.824219 37.257812 31.34375 35.121094 33.386719 L 34.898438 33.609375 L 34.335938 34.164062 L 34.109375 34.386719 C 34.035156 34.5 33.921875 34.609375 33.847656 34.683594 C 33.433594 35.128906 33.058594 35.613281 32.6875 36.132812 C 32.421875 36.503906 32.160156 36.910156 31.9375 37.316406 L 31.898438 37.355469 C 31.410156 38.207031 30.960938 39.097656 30.625 40.101562 C 30.4375 40.582031 30.285156 41.101562 30.136719 41.621094 C 30.097656 41.769531 30.0625 41.878906 30.023438 42.027344 L 29.988281 42.101562 C 29.835938 42.660156 29.726562 43.253906 29.648438 43.847656 C 29.648438 43.957031 29.613281 44.070312 29.613281 44.21875 C 29.574219 44.515625 29.539062 44.8125 29.539062 45.144531 C 29.5 45.441406 29.5 45.703125 29.5 46 L 29.5 47.148438 C 29.5 47.480469 29.5 47.816406 29.539062 48.148438 L 29.539062 48.1875 C 29.539062 48.519531 29.574219 48.855469 29.613281 49.226562 C 29.613281 49.375 29.648438 49.523438 29.648438 49.671875 L 29.648438 49.78125 C 29.648438 49.855469 29.648438 49.929688 29.6875 50.042969 C 29.726562 50.414062 29.800781 50.820312 29.835938 51.230469 C 29.835938 51.339844 29.875 51.453125 29.875 51.5625 C 29.949219 51.898438 29.988281 52.265625 30.0625 52.601562 C 30.0625 52.601562 29.988281 52.15625 30.023438 51.488281 C 30.023438 51.339844 30.0625 51.15625 30.0625 51.007812 C 30.097656 50.636719 30.175781 50.191406 30.324219 49.78125 L 30.4375 49.449219 C 30.4375 49.410156 30.472656 49.375 30.511719 49.300781 C 30.585938 49.113281 30.699219 48.890625 30.8125 48.707031 C 30.847656 48.855469 30.847656 49.003906 30.886719 49.113281 L 30.886719 51.082031 C 30.925781 52.339844 31.035156 53.863281 31.300781 55.160156 C 31.300781 55.160156 31.335938 52.824219 31.75 52.527344 C 31.75 52.527344 32.460938 56.90625 33.097656 58.535156 C 33.171875 58.757812 33.285156 58.90625 33.359375 59.019531 L 33.359375 58.574219 L 33.285156 56.164062 L 33.285156 55.902344 C 33.773438 56.90625 34.335938 57.90625 34.972656 58.980469 C 35.160156 59.277344 35.308594 59.574219 35.496094 59.871094 C 34.296875 60.910156 33.171875 62.433594 32.347656 64.210938 C 32.234375 64.507812 32.085938 64.804688 31.972656 65.101562 C 31.898438 65.289062 31.859375 65.4375 31.785156 65.621094 C 31.785156 65.660156 31.75 65.734375 31.75 65.769531 C 31.710938 65.882812 31.671875 66.03125 31.636719 66.140625 C 31.636719 66.214844 31.597656 66.253906 31.597656 66.328125 C 31.5625 66.4375 31.523438 66.585938 31.484375 66.699219 C 31.484375 66.773438 31.449219 66.808594 31.449219 66.882812 L 31.335938 67.441406 C 31.300781 67.625 31.261719 67.8125 31.261719 67.996094 C 31.261719 68.070312 31.261719 68.105469 31.222656 68.179688 C 31.222656 68.328125 31.1875 68.441406 31.1875 68.589844 C 31.1875 68.664062 31.1875 68.738281 31.148438 68.8125 C 31.148438 68.960938 31.113281 69.070312 31.113281 69.21875 L 31.113281 70.519531 C 31.113281 70.667969 31.113281 70.816406 31.148438 71 L 31.148438 71.113281 C 31.148438 71.296875 31.1875 71.484375 31.222656 71.707031 C 31.222656 71.78125 31.222656 71.816406 31.261719 71.890625 C 31.261719 72.039062 31.300781 72.152344 31.335938 72.300781 C 31.335938 72.375 31.375 72.449219 31.375 72.523438 C 31.410156 72.632812 31.410156 72.78125 31.449219 72.894531 C 31.449219 72.96875 31.484375 73.042969 31.484375 73.117188 C 31.523438 73.226562 31.5625 73.335938 31.5625 73.484375 C 31.597656 73.558594 31.597656 73.632812 31.636719 73.746094 C 31.671875 73.855469 31.710938 74.003906 31.75 74.117188 C 31.785156 74.191406 31.785156 74.265625 31.824219 74.339844 C 31.859375 74.449219 31.898438 74.597656 31.9375 74.710938 C 31.972656 74.785156 31.972656 74.859375 32.011719 74.933594 C 32.046875 75.082031 32.125 75.230469 32.160156 75.339844 C 32.199219 75.414062 32.199219 75.453125 32.234375 75.527344 L 32.796875 76.75 C 32.835938 76.824219 32.875 76.863281 32.910156 76.9375 L 33.136719 77.382812 C 33.171875 77.457031 33.210938 77.53125 33.285156 77.605469 C 33.359375 77.714844 33.433594 77.863281 33.511719 77.976562 C 33.546875 78.050781 33.621094 78.125 33.660156 78.199219 C 33.734375 78.308594 33.808594 78.457031 33.921875 78.566406 C 33.996094 78.640625 34.035156 78.714844 34.109375 78.828125 C 34.183594 78.9375 34.296875 79.085938 34.371094 79.199219 C 34.449219 79.273438 34.484375 79.347656 34.558594 79.457031 C 34.671875 79.570312 34.746094 79.71875 34.859375 79.828125 C 34.933594 79.902344 34.972656 79.976562 35.046875 80.050781 C 35.160156 80.199219 35.273438 80.3125 35.421875 80.460938 L 35.609375 80.644531 C 35.796875 80.832031 35.984375 81.054688 36.171875 81.238281 C 36.171875 81.238281 36.058594 81.089844 35.910156 80.792969 C 35.871094 80.757812 35.835938 80.683594 35.835938 80.609375 L 35.722656 80.386719 C 35.683594 80.3125 35.648438 80.238281 35.609375 80.125 C 35.308594 79.457031 35.046875 78.492188 35.085938 77.457031 L 35.421875 77.902344 C 35.535156 78.160156 35.722656 78.492188 35.910156 78.863281 C 35.984375 78.976562 36.058594 79.125 36.097656 79.234375 C 36.394531 79.753906 36.695312 80.347656 37.070312 80.90625 C 37.519531 81.609375 37.96875 82.277344 38.457031 82.910156 C 38.457031 82.910156 37.894531 81.722656 37.707031 80.941406 C 37.671875 80.71875 37.632812 80.535156 37.671875 80.421875 C 37.707031 80.460938 37.746094 80.535156 37.820312 80.570312 C 37.859375 80.609375 37.894531 80.683594 37.96875 80.71875 C 38.046875 80.832031 38.15625 80.980469 38.308594 81.164062 L 38.382812 81.238281 C 38.457031 81.3125 38.496094 81.425781 38.570312 81.5 C 38.644531 81.609375 38.71875 81.722656 38.832031 81.832031 C 39.621094 82.835938 40.707031 84.167969 41.457031 84.875 C 41.71875 85.097656 41.945312 85.28125 42.09375 85.355469 L 41.007812 83.429688 C 43.480469 85.429688 53.75 87.992188 63.832031 85.132812 C 65.070312 84.800781 66.269531 84.355469 67.46875 83.835938 C 68.179688 83.539062 68.894531 83.167969 69.605469 82.796875 L 69.71875 82.722656 C 70.207031 82.464844 70.691406 82.167969 71.179688 81.871094 C 71.554688 81.648438 71.929688 81.386719 72.265625 81.164062 C 72.867188 80.757812 73.464844 80.3125 74.066406 79.828125 C 74.101562 79.792969 74.140625 79.753906 74.179688 79.753906 C 74.742188 79.273438 75.304688 78.753906 75.789062 78.234375 C 76.464844 77.53125 77.066406 76.824219 77.589844 76.121094 L 77.625 76.082031 C 77.777344 75.898438 77.890625 75.75 78 75.5625 L 78.039062 75.527344 C 78.078125 75.453125 78.113281 75.414062 78.152344 75.339844 C 78.339844 75.082031 78.488281 74.859375 78.675781 74.597656 C 78.714844 74.523438 78.75 74.488281 78.789062 74.414062 C 78.863281 74.265625 78.9375 74.152344 79.050781 74.003906 C 79.125 73.894531 79.164062 73.820312 79.238281 73.707031 C 79.3125 73.597656 79.386719 73.484375 79.425781 73.375 C 79.539062 73.1875 79.652344 72.96875 79.761719 72.78125 L 80.214844 71.890625 L 80.25 71.816406 C 80.324219 71.632812 80.4375 71.445312 80.511719 71.261719 L 80.511719 71.222656 C 80.851562 70.925781 81.074219 70.628906 81.300781 70.371094 C 81.335938 70.332031 81.375 70.296875 81.375 70.257812 C 81.601562 69.554688 81.75 68.996094 81.75 68.476562 M 21.441406 61.28125 C 21.441406 61.246094 21.441406 61.207031 21.402344 61.132812 C 21.292969 60.503906 21.179688 59.835938 21.140625 59.167969 L 21.140625 59.019531 C 21.027344 59.054688 20.917969 59.203125 20.765625 59.390625 C 20.730469 59.464844 20.652344 59.539062 20.617188 59.648438 C 20.277344 60.28125 19.980469 61.171875 19.980469 61.171875 C 20.015625 60.875 20.054688 60.578125 20.054688 60.28125 L 20.054688 60.167969 C 20.089844 59.871094 20.128906 59.539062 20.167969 59.242188 L 20.167969 59.128906 C 20.203125 58.757812 20.277344 58.425781 20.355469 58.089844 C 20.355469 58.054688 20.355469 58.015625 20.390625 57.941406 L 20.390625 57.90625 C 20.390625 57.867188 20.390625 57.832031 20.429688 57.792969 C 20.429688 57.71875 20.464844 57.683594 20.464844 57.609375 C 20.503906 57.351562 20.578125 57.089844 20.617188 56.832031 C 20.652344 56.609375 20.691406 56.386719 20.730469 56.199219 L 20.730469 56.125 C 20.730469 56.089844 20.730469 56.050781 20.765625 56.050781 L 20.765625 55.976562 C 20.765625 55.941406 20.804688 55.867188 20.804688 55.828125 C 20.804688 55.792969 20.804688 55.753906 20.839844 55.71875 C 20.839844 55.644531 20.878906 55.570312 20.878906 55.53125 C 20.878906 55.496094 20.917969 55.421875 20.917969 55.382812 C 20.917969 55.308594 20.953125 55.234375 20.953125 55.199219 C 20.953125 55.160156 20.953125 55.125 20.992188 55.085938 C 20.992188 55.050781 20.992188 55.011719 21.027344 55.011719 C 21.027344 54.9375 21.066406 54.902344 21.066406 54.863281 L 21.066406 54.753906 L 20.992188 54.828125 C 20.917969 54.863281 20.878906 54.9375 20.804688 54.976562 L 20.730469 55.050781 C 20.652344 55.125 20.578125 55.199219 20.542969 55.273438 L 20.503906 55.308594 L 20.277344 55.644531 L 20.242188 55.679688 C 20.242188 55.71875 20.203125 55.71875 20.203125 55.753906 L 20.089844 55.976562 L 20.089844 56.050781 C 20.054688 56.164062 19.980469 56.273438 19.941406 56.386719 C 19.828125 56.683594 19.71875 56.980469 19.640625 57.238281 C 19.605469 57.3125 19.605469 57.425781 19.566406 57.460938 C 19.53125 57.609375 19.492188 57.757812 19.492188 57.792969 L 19.492188 57.832031 L 19.492188 57.792969 C 19.492188 57.683594 19.492188 57.609375 19.53125 57.496094 C 19.53125 57.3125 19.566406 57.089844 19.566406 56.90625 C 19.566406 56.757812 19.605469 56.570312 19.640625 56.421875 C 19.640625 56.386719 19.640625 56.3125 19.679688 56.273438 C 19.679688 56.199219 19.71875 56.125 19.71875 56.050781 C 19.71875 55.976562 19.753906 55.902344 19.753906 55.828125 L 19.753906 55.71875 C 19.753906 55.644531 19.792969 55.53125 19.792969 55.457031 L 19.792969 55.199219 C 19.792969 55.160156 19.792969 55.125 19.828125 55.085938 C 19.867188 54.976562 19.90625 54.828125 19.90625 54.714844 L 19.90625 54.679688 C 19.941406 54.605469 19.941406 54.492188 19.980469 54.417969 L 19.980469 54.382812 C 20.015625 54.195312 20.089844 54.011719 20.128906 53.824219 L 20.128906 53.75 C 20.128906 53.714844 20.128906 53.675781 20.167969 53.640625 C 20.242188 53.34375 20.355469 53.046875 20.429688 52.785156 L 20.429688 52.75 C 20.503906 52.527344 20.617188 52.265625 20.691406 52.046875 L 20.691406 52.007812 C 20.730469 51.898438 20.765625 51.824219 20.804688 51.710938 C 20.878906 51.5625 20.917969 51.414062 20.992188 51.265625 C 20.992188 51.230469 21.027344 51.15625 21.105469 51.007812 C 21.140625 50.96875 21.140625 50.894531 21.179688 50.859375 C 21.214844 50.785156 21.253906 50.710938 21.292969 50.597656 L 21.328125 50.523438 L 21.964844 49.375 C 22.003906 49.335938 22.003906 49.261719 22.039062 49.226562 L 22.039062 49.1875 L 22.078125 49.113281 C 22.152344 49.003906 22.226562 48.855469 22.304688 48.742188 C 22.414062 48.558594 22.492188 48.371094 22.601562 48.222656 C 22.789062 47.890625 22.941406 47.59375 23.054688 47.445312 C 23.089844 47.332031 23.128906 47.296875 23.164062 47.257812 C 23.128906 47.257812 22.941406 47.109375 22.640625 46.925781 C 22.265625 46.703125 21.742188 46.40625 21.105469 46.109375 C 20.878906 46 20.691406 45.925781 20.464844 45.8125 C 20.203125 45.703125 19.90625 45.589844 19.605469 45.480469 C 19.53125 45.441406 19.453125 45.441406 19.378906 45.40625 C 19.117188 45.332031 18.890625 45.257812 18.628906 45.183594 C 18.441406 45.144531 18.253906 45.109375 18.105469 45.070312 C 17.957031 45.035156 17.804688 45.035156 17.65625 44.996094 C 17.582031 44.996094 17.503906 44.996094 17.429688 44.960938 C 17.355469 44.960938 17.28125 44.960938 17.207031 44.921875 C 17.019531 44.921875 16.792969 44.886719 16.605469 44.886719 L 16.304688 44.886719 C 15.855469 44.886719 15.445312 44.921875 15.03125 44.996094 L 14.957031 44.996094 C 14.207031 45.109375 13.496094 45.292969 12.78125 45.554688 C 12.558594 45.628906 12.332031 45.738281 12.070312 45.851562 C 11.996094 45.886719 11.957031 45.925781 11.882812 45.925781 L 11.660156 46.035156 C 10.984375 46.371094 10.347656 46.816406 9.746094 47.296875 L 9.710938 47.296875 C 9.183594 47.703125 8.734375 48.1875 8.324219 48.667969 L 7.984375 49.113281 C 7.835938 49.300781 7.722656 49.484375 7.609375 49.671875 C 7.386719 50.003906 7.160156 50.375 6.972656 50.746094 C 6.898438 50.894531 6.824219 51.007812 6.785156 51.15625 C 6.785156 51.191406 6.75 51.191406 6.75 51.230469 C 6.375 52.121094 6.074219 53.046875 5.960938 54.046875 C 5.921875 54.234375 5.921875 54.417969 5.886719 54.640625 L 5.886719 54.714844 C 5.886719 54.863281 5.847656 55.011719 5.847656 55.199219 L 5.847656 55.867188 C 5.847656 56.015625 5.847656 56.164062 5.886719 56.3125 L 5.886719 56.496094 C 5.886719 56.609375 5.921875 56.71875 5.921875 56.832031 L 5.921875 56.867188 C 5.921875 56.941406 5.921875 56.980469 5.960938 57.054688 C 5.960938 57.164062 6 57.277344 6 57.351562 C 6 57.425781 6.035156 57.496094 6.035156 57.570312 C 6.074219 57.683594 6.074219 57.757812 6.109375 57.867188 C 6.109375 57.941406 6.148438 58.015625 6.1875 58.089844 L 6.1875 58.128906 L 6.222656 58.203125 L 6.222656 58.277344 L 6.261719 58.351562 C 6.296875 58.425781 6.296875 58.5 6.335938 58.574219 C 6.375 58.648438 6.375 58.757812 6.410156 58.832031 C 6.449219 58.90625 6.484375 58.980469 6.484375 59.09375 L 6.523438 59.167969 C 6.5625 59.242188 6.5625 59.277344 6.597656 59.351562 C 6.636719 59.425781 6.671875 59.5 6.710938 59.613281 L 6.824219 59.835938 C 6.859375 59.871094 6.859375 59.910156 6.898438 59.945312 C 6.933594 59.984375 6.933594 60.019531 6.972656 60.058594 L 7.085938 60.28125 C 7.121094 60.355469 7.160156 60.464844 7.234375 60.539062 C 7.273438 60.613281 7.308594 60.6875 7.347656 60.726562 C 7.386719 60.800781 7.460938 60.910156 7.496094 60.984375 C 7.535156 61.058594 7.574219 61.097656 7.609375 61.171875 C 7.648438 61.246094 7.722656 61.355469 7.796875 61.429688 C 7.835938 61.503906 7.871094 61.542969 7.910156 61.578125 C 7.984375 61.652344 8.023438 61.765625 8.097656 61.839844 C 8.136719 61.875 8.171875 61.949219 8.210938 61.988281 C 8.285156 62.0625 8.359375 62.171875 8.433594 62.246094 C 8.472656 62.285156 8.507812 62.320312 8.546875 62.394531 C 8.621094 62.46875 8.695312 62.582031 8.773438 62.65625 L 8.882812 62.765625 C 8.960938 62.839844 9.035156 62.949219 9.148438 63.023438 L 9.257812 63.136719 L 9.523438 63.394531 C 9.558594 63.433594 9.597656 63.46875 9.632812 63.46875 C 9.710938 63.542969 9.820312 63.617188 9.933594 63.730469 C 9.972656 63.765625 10.007812 63.765625 10.046875 63.804688 C 10.160156 63.878906 10.234375 63.953125 10.347656 64.027344 C 10.382812 64.0625 10.421875 64.0625 10.421875 64.101562 L 10.757812 64.324219 L 10.832031 64.359375 L 11.171875 64.582031 L 11.246094 64.621094 C 11.359375 64.695312 11.507812 64.769531 11.621094 64.84375 L 11.695312 64.878906 C 11.808594 64.953125 11.957031 65.027344 12.070312 65.066406 L 12.144531 65.101562 C 12.296875 65.175781 12.40625 65.214844 12.558594 65.289062 L 12.59375 65.324219 C 12.746094 65.398438 12.894531 65.4375 13.007812 65.511719 L 13.046875 65.511719 C 13.195312 65.546875 13.34375 65.621094 13.496094 65.660156 L 13.53125 65.660156 C 13.605469 65.695312 13.683594 65.695312 13.757812 65.734375 C 13.832031 65.769531 13.90625 65.769531 14.019531 65.808594 L 14.058594 65.808594 C 14.207031 65.84375 14.394531 65.882812 14.542969 65.917969 C 14.695312 65.957031 14.882812 65.992188 15.03125 65.992188 C 15.554688 66.066406 16.082031 66.105469 16.605469 66.140625 L 16.980469 66.140625 C 17.167969 66.140625 17.316406 66.140625 17.503906 66.105469 C 17.730469 66.066406 17.992188 66.066406 18.253906 66.03125 C 18.480469 65.992188 18.703125 65.957031 18.890625 65.917969 C 19.230469 65.84375 19.566406 65.769531 19.867188 65.660156 C 20.839844 65.398438 21.664062 65.027344 22.191406 64.621094 C 22.191406 64.621094 21.851562 63.136719 21.589844 61.652344 C 21.515625 61.578125 21.480469 61.429688 21.441406 61.28125 "/>
<path style=" stroke:none;fill-rule:nonzero;fill:rgb(18.431373%,51.372552%,75.686276%);fill-opacity:1;" d="M 45.503906 6.15625 L 45.390625 4.675781 L 46.140625 3.042969 L 46.441406 2.96875 C 45.953125 2.746094 45.355469 2.597656 44.679688 2.484375 C 43.332031 2.300781 41.605469 2.484375 39.65625 2.96875 C 37.707031 3.449219 35.496094 4.304688 33.171875 5.453125 C 28.488281 7.753906 23.316406 11.277344 18.292969 15.800781 C 16.53125 17.359375 14.917969 18.992188 13.417969 20.589844 C 11.957031 22.144531 10.644531 23.742188 9.445312 25.261719 C 7.011719 28.414062 5.175781 31.457031 3.972656 34.203125 C 3.1875 36.019531 2.699219 37.6875 2.511719 39.136719 C 2.363281 40.175781 2.398438 41.101562 2.585938 41.84375 C 2.664062 42.101562 2.738281 42.289062 2.8125 42.511719 C 3 42.957031 3.226562 43.328125 3.523438 43.660156 L 6.5625 46.816406 L 6.898438 47.148438 L 6.933594 47.109375 C 7.011719 47 7.121094 46.890625 7.234375 46.816406 L 7.273438 46.777344 L 7.386719 46.667969 C 7.460938 46.554688 7.574219 46.480469 7.648438 46.371094 C 7.722656 46.296875 7.761719 46.257812 7.835938 46.222656 C 7.910156 46.183594 7.949219 46.109375 8.023438 46.074219 L 8.097656 46 C 8.171875 45.960938 8.210938 45.886719 8.285156 45.851562 C 8.359375 45.777344 8.472656 45.703125 8.546875 45.628906 C 8.585938 45.589844 8.660156 45.554688 8.695312 45.515625 L 8.734375 45.515625 C 8.847656 45.441406 8.921875 45.367188 9.035156 45.292969 C 9.109375 45.257812 9.148438 45.21875 9.222656 45.144531 C 9.335938 45.070312 9.410156 44.996094 9.523438 44.921875 C 9.597656 44.886719 9.632812 44.847656 9.710938 44.8125 C 9.820312 44.738281 9.933594 44.664062 10.046875 44.625 C 10.121094 44.589844 10.160156 44.550781 10.234375 44.515625 C 10.347656 44.441406 10.457031 44.402344 10.570312 44.328125 C 10.644531 44.292969 10.683594 44.253906 10.757812 44.21875 L 10.832031 44.179688 C 11.546875 42.214844 12.632812 40.027344 14.058594 37.800781 C 15.78125 35.054688 17.992188 32.160156 20.617188 29.269531 C 22.265625 27.449219 24.066406 25.632812 26.015625 23.890625 C 28.523438 21.625 31.113281 19.585938 33.660156 17.804688 C 35.382812 16.617188 37.070312 15.542969 38.71875 14.617188 C 38.871094 14.542969 39.019531 14.429688 39.207031 14.355469 C 39.65625 14.097656 40.070312 13.875 40.519531 13.652344 C 41.457031 13.167969 42.394531 12.722656 43.292969 12.351562 L 42.84375 11.832031 L 42.769531 11.757812 L 42.207031 11.128906 L 39.09375 7.417969 L 39.132812 4.75 L 39.09375 4.710938 L 41.304688 4.042969 L 45.503906 6.15625 "/>
<path style=" stroke:none;fill-rule:nonzero;fill:rgb(98.823529%,91.37255%,80.392158%);fill-opacity:1;" d="M 81.75 68.476562 C 81.75 68.476562 81.824219 67.921875 81.523438 67.402344 C 81.523438 67.367188 81.488281 67.328125 81.488281 67.328125 L 81.449219 67.292969 L 81.335938 67.179688 C 81.261719 67.105469 81.1875 67.03125 81.074219 66.957031 C 81.039062 66.921875 80.960938 66.882812 80.886719 66.847656 C 80.699219 66.773438 80.511719 66.699219 80.25 66.660156 C 80.0625 66.625 79.875 66.625 79.652344 66.625 L 79.351562 66.625 L 79.351562 66.699219 C 79.351562 66.734375 79.386719 66.773438 79.386719 66.847656 C 79.386719 66.882812 79.386719 66.921875 79.425781 66.921875 C 79.464844 67.03125 79.5 67.21875 79.539062 67.367188 C 79.539062 67.367188 79.539062 67.402344 79.5 67.476562 L 79.5 67.515625 C 79.386719 67.773438 79.089844 68.367188 78.414062 69.109375 C 78.300781 69.257812 78.1875 69.367188 78.039062 69.515625 C 76.164062 71.445312 72.117188 74.152344 63.570312 75.675781 C 60.683594 76.082031 57.984375 76.121094 55.738281 75.824219 C 52.363281 75.414062 49.851562 74.339844 48.652344 72.894531 C 48.539062 72.78125 48.464844 72.632812 48.351562 72.523438 C 48.277344 72.410156 48.242188 72.335938 48.164062 72.226562 C 48.128906 72.1875 48.128906 72.152344 48.089844 72.113281 C 47.605469 71.222656 47.378906 70.257812 47.378906 69.332031 C 47.378906 68.179688 47.753906 67.105469 48.351562 66.289062 C 48.839844 65.621094 49.476562 65.101562 50.265625 64.878906 C 50.640625 64.769531 51.050781 64.695312 51.464844 64.730469 C 51.539062 64.730469 51.652344 64.730469 51.800781 64.769531 C 52.0625 64.804688 52.476562 64.84375 52.964844 64.917969 C 53 64.917969 53.074219 64.917969 53.113281 64.953125 C 54.726562 65.140625 57.273438 65.398438 60.347656 65.214844 C 65.96875 64.878906 73.355469 63.136719 80.0625 57.128906 L 80.0625 57.089844 C 80.101562 56.570312 80.027344 55.679688 79.386719 54.976562 C 79.277344 54.863281 79.164062 54.753906 79.011719 54.640625 C 78.9375 54.566406 78.824219 54.53125 78.75 54.457031 C 78.640625 54.417969 78.5625 54.34375 78.488281 54.308594 L 78.152344 54.085938 L 78.152344 54.046875 C 78.113281 53.972656 78.078125 53.898438 78 53.824219 C 76.277344 51.230469 73.878906 49.707031 72.902344 49.003906 C 72.453125 48.667969 72.15625 48.519531 72.15625 48.519531 C 70.09375 47.257812 69.792969 46.851562 69.980469 43.476562 C 70.054688 42.25 70.167969 40.65625 70.316406 38.46875 C 70.316406 38.171875 70.355469 37.910156 70.355469 37.652344 L 70.355469 36.574219 C 70.355469 36.390625 70.316406 36.207031 70.316406 36.058594 C 70.316406 35.984375 70.316406 35.910156 70.28125 35.835938 C 70.242188 35.648438 70.242188 35.464844 70.207031 35.277344 C 70.207031 35.203125 70.167969 35.09375 70.167969 35.019531 C 70.167969 34.90625 70.128906 34.832031 70.09375 34.722656 C 70.054688 34.648438 70.054688 34.535156 70.019531 34.460938 C 69.980469 34.351562 69.941406 34.238281 69.941406 34.128906 C 69.941406 34.089844 69.90625 34.054688 69.90625 34.015625 C 69.90625 33.980469 69.867188 33.941406 69.867188 33.90625 L 69.867188 33.867188 L 69.832031 33.757812 C 69.792969 33.683594 69.753906 33.609375 69.753906 33.535156 L 69.753906 33.496094 L 69.71875 33.421875 L 69.679688 33.347656 C 69.605469 33.199219 69.566406 33.050781 69.492188 32.941406 L 69.457031 32.828125 C 69.378906 32.71875 69.304688 32.570312 69.230469 32.457031 L 69.191406 32.421875 L 69.15625 32.382812 C 69.082031 32.308594 69.042969 32.234375 68.96875 32.160156 L 68.894531 32.050781 C 68.820312 31.9375 68.742188 31.863281 68.667969 31.789062 L 68.367188 31.492188 C 68.257812 31.417969 68.144531 31.34375 68.03125 31.308594 C 67.992188 31.273438 67.957031 31.273438 67.917969 31.273438 L 67.695312 31.160156 C 67.65625 31.160156 67.617188 31.125 67.582031 31.125 C 67.507812 31.085938 67.429688 31.085938 67.394531 31.050781 C 67.355469 31.050781 67.320312 31.011719 67.246094 31.011719 C 67.167969 31.011719 67.132812 30.976562 67.058594 30.976562 L 66.230469 30.976562 C 66.195312 30.976562 66.15625 30.976562 66.121094 31.011719 C 66.082031 31.011719 66.042969 31.011719 66.007812 31.050781 C 65.933594 31.050781 65.855469 31.085938 65.746094 31.125 L 65.671875 31.125 C 65.445312 31.199219 65.257812 31.273438 65.03125 31.34375 L 64.957031 31.382812 C 64.882812 31.417969 64.808594 31.457031 64.695312 31.492188 L 64.582031 31.53125 L 64.359375 31.640625 L 64.246094 31.714844 L 64.019531 31.828125 L 63.910156 31.902344 C 63.832031 31.9375 63.757812 32.011719 63.683594 32.050781 L 63.609375 32.085938 C 63.535156 32.160156 63.421875 32.199219 63.347656 32.273438 L 63.308594 32.308594 C 63.195312 32.382812 63.121094 32.457031 63.007812 32.496094 C 62.820312 32.605469 62.632812 32.753906 62.445312 32.867188 C 62.296875 32.976562 62.148438 33.089844 61.960938 33.199219 L 61.882812 33.238281 C 61.734375 33.347656 61.546875 33.460938 61.398438 33.535156 L 61.320312 33.570312 C 61.171875 33.683594 60.984375 33.757812 60.835938 33.867188 L 60.761719 33.90625 C 60.609375 34.015625 60.421875 34.089844 60.234375 34.164062 L 60.160156 34.203125 C 59.972656 34.277344 59.824219 34.351562 59.636719 34.425781 L 59.558594 34.460938 C 59.371094 34.535156 59.183594 34.574219 59 34.648438 L 58.960938 34.648438 C 58.773438 34.683594 58.546875 34.722656 58.359375 34.757812 C 58.023438 34.796875 57.648438 34.832031 57.3125 34.832031 C 56.75 34.832031 56.1875 34.796875 55.585938 34.722656 L 55.023438 34.609375 C 54.949219 34.609375 54.875 34.574219 54.835938 34.574219 C 54.351562 34.460938 53.824219 34.351562 53.339844 34.238281 C 53.113281 34.203125 52.925781 34.128906 52.699219 34.089844 C 52.363281 34.015625 52.027344 33.941406 51.652344 33.867188 C 51.578125 33.867188 51.5 33.832031 51.464844 33.832031 C 51.425781 33.832031 51.351562 33.792969 51.3125 33.792969 C 51.238281 33.792969 51.164062 33.757812 51.089844 33.757812 C 51.015625 33.757812 50.941406 33.71875 50.863281 33.71875 L 50.789062 33.71875 C 50.714844 33.71875 50.640625 33.683594 50.601562 33.683594 C 50.453125 33.644531 50.300781 33.609375 50.113281 33.609375 C 50.078125 33.609375 50.003906 33.609375 49.964844 33.570312 C 49.851562 33.570312 49.738281 33.535156 49.628906 33.535156 C 49.550781 33.535156 49.515625 33.535156 49.441406 33.496094 C 49.328125 33.496094 49.253906 33.460938 49.140625 33.460938 L 47.417969 33.460938 C 47.230469 33.460938 47.078125 33.496094 46.890625 33.496094 L 46.742188 33.496094 C 46.628906 33.496094 46.515625 33.535156 46.402344 33.535156 L 46.367188 33.535156 C 46.292969 33.535156 46.253906 33.570312 46.179688 33.570312 C 46.066406 33.609375 45.953125 33.609375 45.84375 33.644531 C 45.765625 33.644531 45.691406 33.683594 45.65625 33.683594 C 45.542969 33.71875 45.429688 33.757812 45.316406 33.757812 C 45.242188 33.757812 45.203125 33.792969 45.128906 33.832031 C 45.015625 33.867188 44.867188 33.90625 44.753906 33.941406 C 44.679688 33.980469 44.640625 33.980469 44.605469 34.015625 C 44.417969 34.089844 44.230469 34.164062 44.082031 34.238281 C 42.65625 35.054688 41.417969 36.167969 40.480469 37.429688 C 40.144531 37.875 39.84375 38.320312 39.582031 38.765625 C 39.28125 39.246094 39.058594 39.765625 38.832031 40.285156 C 38.757812 40.433594 38.71875 40.582031 38.644531 40.730469 C 38.570312 40.992188 38.457031 41.25 38.382812 41.511719 C 38.382812 41.546875 38.382812 41.585938 38.34375 41.585938 C 38.269531 41.878906 38.195312 42.175781 38.121094 42.511719 C 38.046875 42.84375 38.007812 43.140625 37.96875 43.476562 C 37.933594 43.660156 37.933594 43.808594 37.933594 43.996094 C 37.894531 44.476562 37.894531 44.921875 37.933594 45.40625 L 37.933594 45.515625 C 37.933594 45.628906 37.933594 45.738281 37.96875 45.886719 C 38.007812 46.222656 38.046875 46.554688 38.121094 46.890625 C 38.15625 47 38.195312 47.109375 38.195312 47.257812 C 38.234375 47.371094 38.234375 47.480469 38.269531 47.59375 C 38.496094 48.445312 38.832031 49.226562 39.246094 49.894531 C 40.78125 52.527344 43.332031 54.121094 45.203125 54.976562 C 45.917969 55.273438 46.667969 55.570312 47.453125 55.828125 L 47.378906 55.902344 C 47.230469 55.941406 47.078125 55.976562 46.890625 56.015625 C 46.628906 56.089844 46.292969 56.199219 45.953125 56.3125 C 45.578125 56.421875 45.128906 56.609375 44.679688 56.792969 C 43.480469 57.277344 42.132812 57.980469 40.933594 58.945312 C 40.78125 59.054688 40.632812 59.203125 40.480469 59.316406 C 40.21875 59.539062 39.996094 59.761719 39.769531 60.019531 L 39.582031 60.207031 C 39.507812 60.316406 39.394531 60.390625 39.320312 60.503906 L 39.207031 60.613281 C 39.09375 60.761719 38.984375 60.910156 38.90625 61.058594 C 38.796875 61.207031 38.71875 61.355469 38.609375 61.503906 C 37.894531 62.726562 37.484375 64.210938 37.597656 65.992188 L 37.597656 65.917969 C 37.597656 65.882812 37.597656 65.84375 37.632812 65.808594 L 37.632812 65.769531 C 37.632812 65.734375 37.671875 65.695312 37.671875 65.621094 L 37.671875 65.585938 C 37.671875 65.546875 37.707031 65.472656 37.707031 65.398438 C 37.707031 65.324219 37.746094 65.289062 37.785156 65.214844 L 37.785156 65.175781 C 37.820312 65.101562 37.820312 65.027344 37.859375 64.953125 L 37.859375 64.917969 C 37.894531 64.84375 37.894531 64.769531 37.933594 64.695312 L 37.933594 64.65625 C 37.96875 64.582031 38.007812 64.507812 38.046875 64.398438 L 38.082031 64.359375 C 38.121094 64.285156 38.15625 64.175781 38.234375 64.101562 C 38.308594 63.953125 38.382812 63.839844 38.457031 63.691406 C 38.496094 63.65625 38.53125 63.582031 38.570312 63.542969 L 38.609375 63.507812 L 38.832031 63.171875 C 38.90625 63.097656 38.984375 62.988281 39.058594 62.914062 L 39.132812 62.839844 C 39.207031 62.765625 39.246094 62.691406 39.320312 62.65625 L 39.394531 62.582031 C 39.46875 62.507812 39.582031 62.433594 39.65625 62.320312 C 39.65625 62.320312 38.046875 65.957031 38.757812 68.8125 L 38.757812 68.253906 C 38.757812 68.179688 38.757812 68.105469 38.796875 68.03125 C 38.796875 67.957031 38.796875 67.886719 38.832031 67.8125 L 38.832031 67.773438 C 38.832031 67.699219 38.871094 67.589844 38.871094 67.515625 L 38.871094 67.441406 C 38.90625 67.328125 38.90625 67.253906 38.945312 67.144531 L 38.945312 67.105469 C 38.984375 66.996094 39.019531 66.882812 39.019531 66.808594 C 39.019531 66.773438 39.058594 66.734375 39.058594 66.699219 L 39.09375 66.625 C 39.132812 66.550781 39.171875 66.4375 39.207031 66.363281 C 39.246094 66.253906 39.320312 66.140625 39.394531 66.03125 C 39.394531 65.992188 39.433594 65.957031 39.433594 65.957031 L 39.65625 65.621094 C 39.65625 65.621094 39.582031 66.511719 39.582031 67.589844 C 39.582031 67.773438 39.582031 67.921875 39.621094 68.105469 C 39.621094 68.21875 39.621094 68.328125 39.65625 68.441406 C 39.730469 67.292969 39.957031 66.214844 40.257812 65.214844 C 39.957031 66.214844 39.730469 67.292969 39.65625 68.441406 C 39.621094 69.183594 39.621094 69.925781 39.695312 70.703125 C 39.808594 72.003906 40.144531 73.410156 40.707031 74.859375 C 40.707031 74.859375 40.183594 73.1875 40.933594 71.519531 L 41.15625 71.964844 C 41.230469 72.449219 41.304688 73.152344 41.457031 73.929688 C 41.605469 75.230469 42.207031 79.125 44.90625 81.832031 C 44.90625 81.832031 43.894531 80.535156 44.042969 78.863281 C 44.15625 79.085938 44.269531 79.273438 44.34375 79.457031 C 44.792969 80.3125 45.691406 81.871094 46.703125 82.984375 C 46.703125 82.984375 45.917969 81.460938 46.105469 81.128906 C 46.105469 81.128906 48.726562 84.355469 49.550781 84.652344 L 48.464844 82.871094 L 48.429688 82.835938 C 52.214844 85.578125 57.460938 86.582031 63.910156 84.800781 C 65.03125 84.503906 66.15625 84.09375 67.355469 83.613281 C 68.070312 83.316406 68.78125 82.945312 69.492188 82.574219 L 69.605469 82.5 C 70.09375 82.242188 70.582031 81.945312 71.066406 81.648438 C 71.441406 81.425781 71.816406 81.164062 72.15625 80.941406 C 72.753906 80.535156 73.355469 80.089844 73.953125 79.605469 C 73.992188 79.570312 74.027344 79.53125 74.066406 79.53125 C 74.628906 79.050781 75.191406 78.53125 75.675781 78.011719 C 76.351562 77.308594 76.953125 76.601562 77.476562 75.898438 L 77.515625 75.859375 C 77.664062 75.675781 77.777344 75.527344 77.890625 75.339844 L 77.925781 75.304688 C 77.964844 75.230469 78 75.191406 78.039062 75.117188 C 78.226562 74.859375 78.375 74.636719 78.5625 74.375 C 78.601562 74.300781 78.640625 74.265625 78.675781 74.191406 C 78.75 74.042969 78.824219 73.929688 78.9375 73.78125 C 79.011719 73.671875 79.050781 73.597656 79.125 73.484375 C 79.199219 73.375 79.277344 73.261719 79.3125 73.152344 C 79.425781 72.96875 79.539062 72.746094 79.652344 72.558594 L 79.761719 72.335938 L 80.101562 71.667969 L 80.136719 71.59375 C 80.214844 71.410156 80.324219 71.222656 80.402344 71.039062 L 80.402344 71 C 80.738281 70.703125 80.960938 70.40625 81.1875 70.148438 C 81.226562 70.109375 81.261719 70.074219 81.261719 70.035156 C 81.601562 69.554688 81.75 68.996094 81.75 68.476562 M 21.140625 59.019531 C 21.027344 59.054688 20.917969 59.203125 20.765625 59.390625 C 20.730469 59.464844 20.652344 59.539062 20.617188 59.648438 C 20.277344 60.28125 19.980469 61.171875 19.980469 61.171875 C 20.015625 60.875 20.054688 60.578125 20.054688 60.28125 L 20.054688 60.167969 C 20.089844 59.871094 20.128906 59.539062 20.167969 59.242188 L 20.167969 59.128906 C 20.203125 58.757812 20.277344 58.425781 20.355469 58.089844 C 20.355469 58.054688 20.355469 58.015625 20.390625 57.941406 L 20.390625 57.90625 C 20.390625 57.867188 20.390625 57.832031 20.429688 57.792969 C 20.429688 57.71875 20.464844 57.683594 20.464844 57.609375 C 20.503906 57.351562 20.578125 57.089844 20.617188 56.832031 C 20.652344 56.609375 20.691406 56.386719 20.730469 56.199219 L 20.730469 56.125 C 20.730469 56.089844 20.730469 56.050781 20.765625 56.050781 L 20.765625 55.976562 C 20.765625 55.941406 20.804688 55.867188 20.804688 55.828125 C 20.804688 55.792969 20.804688 55.753906 20.839844 55.71875 C 20.839844 55.644531 20.878906 55.570312 20.878906 55.53125 C 20.878906 55.496094 20.917969 55.421875 20.917969 55.382812 C 20.917969 55.308594 20.953125 55.234375 20.953125 55.199219 C 20.953125 55.160156 20.953125 55.125 20.992188 55.085938 C 20.992188 55.050781 20.992188 55.011719 21.027344 55.011719 C 21.027344 54.9375 21.066406 54.902344 21.066406 54.863281 L 21.066406 54.753906 L 20.992188 54.828125 C 20.917969 54.863281 20.878906 54.9375 20.804688 54.976562 L 20.730469 55.050781 C 20.652344 55.125 20.578125 55.199219 20.542969 55.273438 L 20.503906 55.308594 L 20.277344 55.644531 L 20.242188 55.679688 C 20.242188 55.71875 20.203125 55.71875 20.203125 55.753906 L 20.089844 55.976562 L 20.089844 56.050781 C 20.054688 56.164062 19.980469 56.273438 19.941406 56.386719 C 19.828125 56.683594 19.71875 56.980469 19.640625 57.238281 C 19.605469 57.3125 19.605469 57.425781 19.566406 57.460938 C 19.53125 57.609375 19.492188 57.757812 19.492188 57.792969 L 19.492188 57.832031 L 19.492188 57.792969 C 19.492188 57.683594 19.492188 57.609375 19.53125 57.496094 C 19.53125 57.3125 19.566406 57.089844 19.566406 56.90625 C 19.566406 56.757812 19.605469 56.570312 19.640625 56.421875 C 19.640625 56.386719 19.640625 56.3125 19.679688 56.273438 C 19.679688 56.199219 19.71875 56.125 19.71875 56.050781 C 19.71875 55.976562 19.753906 55.902344 19.753906 55.828125 L 19.753906 55.71875 C 19.753906 55.644531 19.792969 55.53125 19.792969 55.457031 L 19.792969 55.199219 C 19.792969 55.160156 19.792969 55.125 19.828125 55.085938 C 19.867188 54.976562 19.90625 54.828125 19.90625 54.714844 L 19.90625 54.679688 C 19.941406 54.605469 19.941406 54.492188 19.980469 54.417969 L 19.980469 54.382812 C 20.015625 54.195312 20.089844 54.011719 20.128906 53.824219 L 20.128906 53.75 C 20.128906 53.714844 20.128906 53.675781 20.167969 53.640625 C 20.242188 53.34375 20.355469 53.046875 20.429688 52.785156 L 20.429688 52.75 C 20.503906 52.527344 20.617188 52.265625 20.691406 52.046875 L 20.691406 52.007812 C 20.730469 51.898438 20.765625 51.824219 20.804688 51.710938 C 20.878906 51.5625 20.917969 51.414062 20.992188 51.265625 C 20.992188 51.230469 21.027344 51.15625 21.105469 51.007812 C 21.140625 50.96875 21.140625 50.894531 21.179688 50.859375 C 21.214844 50.785156 21.253906 50.710938 21.292969 50.597656 L 21.328125 50.523438 C 21.292969 50.488281 21.214844 50.488281 21.179688 50.449219 L 21.140625 50.449219 L 21.066406 50.414062 C 20.730469 50.265625 20.355469 50.117188 19.980469 50.003906 L 19.90625 50.003906 C 19.640625 49.929688 19.417969 49.894531 19.15625 49.855469 C 19.003906 49.855469 18.855469 49.820312 18.703125 49.820312 L 18.328125 49.820312 C 18.144531 49.820312 17.957031 49.855469 17.769531 49.855469 C 17.691406 49.855469 17.65625 49.855469 17.582031 49.894531 C 17.503906 49.894531 17.394531 49.929688 17.316406 49.929688 C 17.28125 49.929688 17.242188 49.929688 17.207031 49.96875 C 17.128906 49.96875 17.09375 50.003906 17.019531 50.003906 C 16.90625 50.042969 16.753906 50.078125 16.644531 50.117188 C 16.605469 50.117188 16.53125 50.152344 16.492188 50.152344 C 16.34375 50.226562 16.15625 50.265625 16.007812 50.339844 C 15.929688 50.375 15.894531 50.414062 15.820312 50.414062 L 15.59375 50.523438 L 15.519531 50.5625 C 15.445312 50.597656 15.367188 50.636719 15.292969 50.710938 C 15.21875 50.746094 15.144531 50.785156 15.070312 50.859375 C 14.996094 50.894531 14.917969 50.96875 14.84375 51.007812 C 14.808594 51.042969 14.730469 51.082031 14.695312 51.117188 C 14.582031 51.230469 14.433594 51.339844 14.320312 51.453125 L 14.132812 51.636719 C 14.019531 51.75 13.945312 51.859375 13.832031 51.972656 L 13.792969 52.007812 C 13.757812 52.082031 13.683594 52.121094 13.644531 52.195312 L 13.53125 52.304688 C 13.34375 52.5625 13.15625 52.859375 13.007812 53.15625 C 12.96875 53.195312 12.96875 53.230469 12.933594 53.269531 C 12.859375 53.417969 12.820312 53.566406 12.746094 53.714844 C 12.707031 53.789062 12.707031 53.824219 12.671875 53.898438 C 12.632812 54.046875 12.558594 54.195312 12.519531 54.382812 L 12.519531 54.53125 C 12.484375 54.640625 12.484375 54.753906 12.445312 54.863281 C 12.445312 54.9375 12.445312 54.976562 12.40625 55.050781 C 12.40625 55.125 12.40625 55.160156 12.371094 55.234375 L 12.371094 55.382812 C 12.371094 55.570312 12.332031 55.753906 12.371094 55.941406 C 12.371094 56.089844 12.371094 56.238281 12.40625 56.386719 L 12.40625 56.460938 C 12.40625 56.535156 12.445312 56.609375 12.445312 56.683594 C 12.484375 56.980469 12.558594 57.238281 12.632812 57.535156 C 12.707031 57.757812 12.78125 57.941406 12.859375 58.128906 C 13.007812 58.5 13.195312 58.832031 13.417969 59.167969 C 13.871094 59.835938 14.46875 60.429688 15.179688 60.875 C 15.554688 61.132812 16.007812 61.320312 16.457031 61.46875 C 16.867188 61.617188 17.316406 61.726562 17.804688 61.765625 C 17.917969 61.765625 18.03125 61.800781 18.105469 61.800781 L 18.59375 61.800781 C 18.742188 61.800781 18.890625 61.765625 19.042969 61.765625 C 19.117188 61.765625 19.230469 61.765625 19.304688 61.726562 C 19.53125 61.691406 19.71875 61.652344 19.941406 61.617188 L 19.980469 61.617188 C 20.054688 61.578125 20.128906 61.578125 20.242188 61.542969 C 20.503906 61.46875 20.765625 61.355469 20.992188 61.246094 L 21.027344 61.207031 C 21.105469 61.171875 21.179688 61.132812 21.214844 61.132812 C 21.105469 60.503906 20.992188 59.835938 20.953125 59.167969 C 21.140625 59.09375 21.140625 59.054688 21.140625 59.019531 "/>
<path style=" stroke:none;fill-rule:nonzero;fill:rgb(30.19608%,61.960787%,84.313726%);fill-opacity:1;" d="M 46.441406 6.601562 L 46.554688 6.675781 Z M 46.441406 6.601562 "/>
<path style=" stroke:none;fill-rule:nonzero;fill:rgb(100%,100%,100%);fill-opacity:1;" d="M 79.464844 66.957031 C 79.464844 66.921875 79.464844 66.882812 79.425781 66.882812 C 79.386719 66.808594 79.386719 66.773438 79.386719 66.734375 C 79.199219 66.140625 78.976562 65.695312 78.75 65.363281 C 78.488281 64.953125 78.265625 64.730469 78.265625 64.730469 L 78.375 64.285156 C 78.414062 64.101562 78.453125 63.914062 78.453125 63.730469 C 78.601562 62.394531 78.265625 61.355469 77.964844 60.761719 C 77.925781 60.652344 77.890625 60.578125 77.851562 60.503906 C 77.625 60.652344 77.4375 60.800781 77.214844 60.949219 C 73.167969 63.65625 68.632812 65.398438 63.722656 66.140625 C 60.347656 66.660156 56.785156 66.699219 53.074219 66.253906 L 53.152344 66.289062 C 53.152344 66.289062 50.902344 66.585938 50.300781 68.699219 L 50.339844 68.738281 L 50.152344 70.148438 C 50.226562 72.078125 51.089844 73.261719 52.101562 73.894531 C 53.152344 74.300781 54.425781 74.597656 55.851562 74.785156 C 58.285156 75.082031 61.132812 75.007812 63.984375 74.5625 C 67.804688 74.042969 73.203125 72.039062 77.066406 69.441406 C 77.925781 68.847656 78.75 68.21875 79.425781 67.589844 L 79.5 67.515625 C 79.5 67.253906 79.464844 67.105469 79.464844 66.957031 "/>
<path style=" stroke:none;fill-rule:nonzero;fill:rgb(94.901961%,82.352942%,67.450982%);fill-opacity:1;" d="M 72.15625 48.632812 C 70.09375 47.371094 69.792969 46.964844 69.980469 43.585938 C 70.054688 42.363281 70.167969 40.769531 70.316406 38.578125 C 70.316406 38.28125 70.355469 38.023438 70.355469 37.761719 L 70.355469 36.6875 C 70.355469 36.503906 70.316406 36.316406 70.316406 36.167969 C 70.316406 36.09375 70.316406 36.019531 70.28125 35.945312 C 70.242188 35.761719 70.242188 35.574219 70.207031 35.390625 C 70.207031 35.316406 70.167969 35.203125 70.167969 35.128906 C 70.167969 35.019531 70.128906 34.945312 70.09375 34.832031 C 70.054688 34.757812 70.054688 34.648438 70.019531 34.574219 C 69.71875 34.128906 69.378906 33.757812 68.96875 33.421875 L 68.894531 33.347656 L 68.820312 33.3125 L 68.78125 33.3125 C 68.707031 33.273438 68.667969 33.238281 68.59375 33.199219 C 68.519531 33.164062 68.445312 33.125 68.40625 33.089844 C 67.804688 32.71875 67.09375 32.496094 66.382812 32.382812 C 65.96875 32.308594 65.558594 32.308594 65.144531 32.308594 C 64.957031 32.308594 64.734375 32.347656 64.546875 32.347656 C 64.019531 32.421875 63.496094 32.53125 62.933594 32.679688 C 62.746094 32.792969 62.558594 32.941406 62.371094 33.050781 C 62.222656 33.164062 62.070312 33.273438 61.882812 33.386719 L 61.808594 33.421875 C 61.660156 33.535156 61.472656 33.644531 61.320312 33.71875 L 61.246094 33.757812 C 61.097656 33.867188 60.910156 33.941406 60.761719 34.054688 L 60.683594 34.089844 C 60.535156 34.203125 60.347656 34.277344 60.160156 34.351562 L 60.085938 34.386719 C 59.898438 34.460938 59.746094 34.535156 59.558594 34.609375 L 59.484375 34.648438 C 59.296875 34.722656 59.109375 34.757812 58.921875 34.832031 L 58.886719 34.832031 C 58.699219 34.871094 58.472656 34.90625 58.285156 34.945312 C 57.949219 34.980469 57.574219 35.019531 57.238281 35.019531 C 56.675781 35.019531 56.113281 34.980469 55.511719 34.90625 L 54.949219 34.796875 C 54.875 34.796875 54.800781 34.757812 54.761719 34.757812 C 54.273438 34.648438 53.75 34.535156 53.261719 34.425781 C 53.039062 34.386719 52.851562 34.3125 52.625 34.277344 C 52.289062 34.203125 51.953125 34.128906 51.578125 34.054688 C 51.5 34.054688 51.425781 34.015625 51.390625 34.015625 C 51.089844 34.015625 50.789062 34.054688 50.527344 34.089844 L 50.453125 34.089844 C 49.589844 34.203125 48.765625 34.386719 47.902344 34.683594 C 47.867188 34.683594 47.828125 34.722656 47.753906 34.722656 C 47.605469 34.757812 47.492188 34.832031 47.339844 34.871094 C 47.152344 34.945312 47.003906 35.019531 46.816406 35.09375 C 45.578125 35.613281 44.417969 36.355469 43.292969 37.28125 C 42.84375 37.652344 42.429688 38.058594 42.019531 38.46875 C 41.417969 39.097656 40.894531 39.765625 40.40625 40.472656 C 40.371094 40.507812 40.371094 40.546875 40.332031 40.582031 C 40.070312 40.953125 39.84375 41.363281 39.65625 41.734375 C 39.582031 41.878906 39.507812 42.027344 39.433594 42.140625 L 39.433594 42.175781 C 39.207031 42.660156 39.019531 43.105469 38.871094 43.585938 C 38.871094 43.625 38.871094 43.660156 38.832031 43.660156 C 38.796875 43.734375 38.796875 43.808594 38.757812 43.882812 C 38.683594 44.105469 38.609375 44.328125 38.570312 44.550781 C 38.496094 44.773438 38.457031 44.996094 38.421875 45.257812 C 38.421875 45.292969 38.382812 45.367188 38.382812 45.40625 C 38.34375 45.554688 38.34375 45.703125 38.308594 45.8125 C 38.234375 46.332031 38.195312 46.851562 38.15625 47.371094 L 38.15625 47.742188 C 38.382812 48.59375 38.71875 49.375 39.132812 50.042969 C 40.667969 52.675781 43.21875 54.269531 45.09375 55.125 C 45.804688 55.421875 46.554688 55.71875 47.339844 55.976562 L 47.378906 56.015625 L 47.417969 55.976562 C 47.527344 55.902344 47.605469 55.828125 47.714844 55.753906 C 47.753906 55.71875 47.789062 55.71875 47.828125 55.679688 L 48.164062 55.457031 C 48.203125 55.421875 48.242188 55.421875 48.277344 55.382812 L 48.617188 55.160156 C 48.652344 55.125 48.691406 55.125 48.726562 55.085938 C 48.839844 55.011719 48.953125 54.9375 49.101562 54.863281 C 49.140625 54.828125 49.179688 54.828125 49.214844 54.789062 C 49.328125 54.714844 49.476562 54.640625 49.589844 54.566406 C 49.628906 54.53125 49.664062 54.53125 49.703125 54.492188 C 49.816406 54.417969 49.964844 54.34375 50.078125 54.269531 C 50.113281 54.234375 50.191406 54.234375 50.226562 54.195312 C 50.339844 54.121094 50.488281 54.046875 50.601562 53.972656 C 50.640625 53.9375 50.714844 53.898438 50.753906 53.898438 C 50.863281 53.824219 51.015625 53.75 51.164062 53.675781 C 51.238281 53.640625 51.277344 53.601562 51.351562 53.601562 C 51.5 53.527344 51.613281 53.453125 51.765625 53.417969 C 51.839844 53.378906 51.875 53.34375 51.953125 53.34375 C 52.101562 53.269531 52.214844 53.230469 52.363281 53.15625 L 52.589844 53.046875 C 52.738281 52.972656 52.851562 52.933594 53 52.859375 C 53.074219 52.824219 53.152344 52.785156 53.261719 52.75 C 53.414062 52.710938 53.527344 52.636719 53.675781 52.601562 C 53.75 52.5625 53.863281 52.527344 53.9375 52.488281 C 54.089844 52.453125 54.199219 52.378906 54.351562 52.339844 C 54.460938 52.304688 54.539062 52.265625 54.648438 52.230469 C 54.800781 52.195312 54.914062 52.121094 55.0625 52.082031 L 55.398438 51.972656 C 55.511719 51.933594 55.664062 51.898438 55.773438 51.824219 C 55.886719 51.785156 56.035156 51.75 56.148438 51.710938 C 56.261719 51.675781 56.410156 51.636719 56.523438 51.601562 C 56.675781 51.5625 56.824219 51.527344 56.9375 51.488281 C 57.050781 51.453125 57.160156 51.414062 57.3125 51.378906 C 57.460938 51.339844 57.609375 51.304688 57.796875 51.230469 C 57.875 51.191406 57.949219 51.191406 58.023438 51.15625 C 58.625 49.632812 60.460938 45.851562 63.570312 45.441406 C 63.910156 45.40625 64.207031 45.367188 64.507812 45.367188 L 64.734375 45.367188 C 64.695312 45.144531 64.65625 44.921875 64.65625 44.664062 C 64.546875 43.03125 65.070312 41.660156 65.78125 41.621094 C 66.34375 41.585938 66.792969 42.398438 66.871094 42.660156 C 67.09375 43.140625 67.246094 43.773438 67.28125 44.476562 C 67.320312 45.109375 67.246094 45.703125 67.132812 46.222656 C 67.207031 46.296875 67.246094 46.371094 67.320312 46.40625 C 68.03125 47.296875 68.144531 48.484375 68.105469 49.375 C 68.367188 49.335938 68.667969 49.335938 68.96875 49.300781 C 69.042969 49.300781 69.117188 49.300781 69.191406 49.261719 L 69.34375 49.261719 C 69.679688 49.226562 70.054688 49.1875 70.429688 49.1875 C 71.253906 49.113281 72.078125 49.078125 72.941406 49.039062 C 72.453125 48.78125 72.15625 48.632812 72.15625 48.632812 M 79.988281 71.484375 C 78.640625 72.671875 77.214844 73.632812 75.789062 74.414062 C 75.078125 74.785156 74.367188 75.117188 73.691406 75.414062 C 72.15625 76.082031 70.691406 76.527344 69.378906 76.863281 C 66.496094 77.566406 64.507812 77.566406 64.507812 77.566406 C 66.082031 78.417969 68.070312 78.417969 69.417969 78.308594 C 70.355469 78.234375 70.992188 78.050781 70.992188 78.050781 C 70.953125 78.605469 70.878906 79.125 70.804688 79.644531 C 70.691406 80.199219 70.542969 80.683594 70.355469 81.128906 L 70.355469 81.164062 C 70.128906 81.722656 69.832031 82.203125 69.53125 82.648438 C 69.492188 82.6875 69.457031 82.761719 69.417969 82.796875 L 69.53125 82.722656 C 70.019531 82.464844 70.503906 82.167969 70.992188 81.871094 C 71.367188 81.648438 71.742188 81.386719 72.078125 81.164062 C 72.679688 80.757812 73.277344 80.3125 73.878906 79.828125 C 73.914062 79.792969 73.953125 79.753906 73.992188 79.753906 C 74.554688 79.273438 75.117188 78.753906 75.601562 78.234375 C 76.277344 77.53125 76.878906 76.824219 77.402344 76.121094 L 77.4375 76.082031 C 77.589844 75.898438 77.703125 75.75 77.8125 75.5625 L 77.851562 75.527344 C 77.890625 75.453125 77.925781 75.414062 77.964844 75.339844 C 78.152344 75.082031 78.300781 74.859375 78.488281 74.597656 C 78.527344 74.523438 78.5625 74.488281 78.601562 74.414062 C 78.675781 74.265625 78.75 74.152344 78.863281 74.003906 C 78.9375 73.894531 78.976562 73.820312 79.050781 73.707031 C 79.125 73.597656 79.199219 73.484375 79.238281 73.375 C 79.351562 73.1875 79.464844 72.96875 79.574219 72.78125 L 80.027344 71.890625 L 80.0625 71.816406 C 80.136719 71.632812 80.25 71.445312 80.324219 71.261719 C 80.175781 71.296875 80.101562 71.371094 79.988281 71.484375 M 45.804688 56.535156 C 45.429688 56.644531 44.980469 56.832031 44.53125 57.015625 C 43.332031 57.496094 41.980469 58.203125 40.78125 59.167969 C 40.632812 59.277344 40.480469 59.425781 40.332031 59.539062 C 40.070312 59.761719 39.84375 59.984375 39.621094 60.242188 L 39.542969 60.316406 L 39.433594 60.429688 C 39.359375 60.539062 39.246094 60.613281 39.171875 60.726562 L 39.058594 60.835938 C 38.945312 60.984375 38.832031 61.132812 38.757812 61.28125 C 38.644531 61.429688 38.570312 61.578125 38.457031 61.726562 C 37.746094 62.949219 37.332031 64.433594 37.445312 66.214844 L 37.445312 66.140625 C 37.445312 66.105469 37.445312 66.066406 37.484375 66.03125 L 37.484375 65.992188 C 37.484375 65.957031 37.519531 65.917969 37.519531 65.84375 L 37.519531 65.808594 C 37.519531 65.769531 37.558594 65.695312 37.558594 65.621094 C 37.558594 65.546875 37.597656 65.511719 37.632812 65.4375 L 37.632812 65.398438 C 37.671875 65.324219 37.671875 65.25 37.707031 65.175781 L 37.707031 65.140625 C 37.746094 65.066406 37.746094 64.992188 37.785156 64.917969 L 37.785156 64.878906 C 37.820312 64.804688 37.859375 64.730469 37.894531 64.621094 L 37.933594 64.582031 C 37.96875 64.507812 38.007812 64.398438 38.082031 64.324219 C 38.15625 64.175781 38.234375 64.0625 38.308594 63.914062 C 38.34375 63.878906 38.382812 63.804688 38.421875 63.765625 L 38.457031 63.730469 L 38.683594 63.394531 C 38.757812 63.320312 38.832031 63.210938 38.90625 63.136719 L 38.984375 63.0625 C 39.058594 62.988281 39.09375 62.914062 39.171875 62.875 L 39.246094 62.800781 C 39.320312 62.726562 39.433594 62.65625 39.507812 62.542969 C 39.507812 62.542969 37.894531 66.179688 38.609375 69.035156 L 38.609375 68.476562 C 38.609375 68.402344 38.609375 68.328125 38.644531 68.253906 C 38.644531 68.179688 38.644531 68.105469 38.683594 68.03125 L 38.683594 67.996094 C 38.683594 67.921875 38.71875 67.8125 38.71875 67.738281 L 38.71875 67.664062 C 38.757812 67.550781 38.757812 67.476562 38.796875 67.367188 L 38.796875 67.328125 C 38.832031 67.21875 38.871094 67.105469 38.871094 67.03125 C 38.871094 66.996094 38.90625 66.957031 38.90625 66.921875 L 38.945312 66.847656 C 38.984375 66.773438 39.019531 66.660156 39.058594 66.585938 C 39.09375 66.476562 39.171875 66.363281 39.246094 66.253906 C 39.246094 66.214844 39.28125 66.179688 39.28125 66.179688 L 39.507812 65.84375 C 39.507812 65.84375 39.433594 66.734375 39.433594 67.8125 C 39.433594 67.996094 39.433594 68.144531 39.46875 68.328125 C 39.46875 68.441406 39.46875 68.550781 39.507812 68.664062 C 39.582031 67.515625 39.808594 66.4375 40.105469 65.4375 C 40.183594 65.175781 40.292969 64.878906 40.371094 64.621094 C 40.371094 64.582031 40.40625 64.546875 40.40625 64.507812 C 40.519531 64.25 40.59375 64.027344 40.707031 63.765625 C 40.746094 63.730469 40.746094 63.691406 40.78125 63.617188 C 40.894531 63.394531 41.007812 63.136719 41.121094 62.914062 C 41.15625 62.875 41.15625 62.839844 41.15625 62.800781 C 41.417969 62.320312 41.679688 61.875 41.945312 61.46875 C 41.980469 61.429688 41.980469 61.394531 42.019531 61.355469 C 42.132812 61.207031 42.242188 61.058594 42.355469 60.875 C 42.394531 60.835938 42.394531 60.800781 42.429688 60.761719 C 42.46875 60.726562 42.46875 60.6875 42.507812 60.652344 C 42.65625 60.464844 42.769531 60.28125 42.917969 60.09375 C 42.957031 60.058594 42.957031 60.019531 42.992188 60.019531 C 43.144531 59.835938 43.292969 59.648438 43.441406 59.5 C 43.628906 59.277344 43.816406 59.09375 44.003906 58.871094 C 44.15625 58.722656 44.269531 58.574219 44.417969 58.460938 L 44.566406 58.3125 C 44.867188 58.015625 45.167969 57.71875 45.46875 57.460938 C 46.292969 56.71875 46.964844 56.238281 47.191406 56.089844 C 47.042969 56.125 46.890625 56.164062 46.703125 56.199219 C 46.480469 56.3125 46.179688 56.421875 45.804688 56.535156 "/>
<path style=" stroke:none;fill-rule:nonzero;fill:rgb(94.901961%,82.352942%,67.450982%);fill-opacity:1;" d="M 67.394531 48.484375 C 67.394531 48.484375 67.394531 48.410156 67.355469 48.261719 C 67.207031 47.742188 66.683594 46.480469 64.621094 46.667969 C 62.445312 46.890625 61.695312 48.632812 61.507812 49.226562 C 61.472656 49.335938 61.472656 49.410156 61.472656 49.410156 L 61.546875 49.449219 C 61.808594 49.226562 62.335938 49.226562 62.820312 49.558594 C 63.046875 49.707031 63.195312 49.855469 63.347656 50.042969 C 63.535156 50.339844 63.570312 50.636719 63.457031 50.859375 L 63.347656 50.96875 C 63.347656 50.96875 63.421875 51.007812 63.570312 51.042969 C 64.171875 51.230469 65.855469 51.5625 66.757812 50.414062 C 66.792969 50.339844 66.832031 50.300781 66.871094 50.226562 C 66.683594 50.152344 66.605469 49.894531 66.605469 49.558594 C 66.605469 49.410156 66.644531 49.261719 66.683594 49.078125 C 66.792969 48.632812 67.132812 48.371094 67.394531 48.484375 M 56.5625 64.359375 C 55.136719 64.65625 53.902344 64.878906 52.964844 65.027344 C 53 65.027344 53.074219 65.027344 53.113281 65.066406 C 54.726562 65.25 57.273438 65.511719 60.347656 65.324219 C 65.96875 64.992188 73.355469 63.246094 80.0625 57.238281 L 80.0625 57.203125 C 80.101562 56.683594 80.027344 55.792969 79.386719 55.085938 C 79.277344 54.976562 79.164062 54.863281 79.011719 54.753906 C 78.976562 54.753906 78.976562 54.714844 78.9375 54.714844 C 78.75 54.605469 78.601562 54.53125 78.453125 54.417969 L 78.113281 54.195312 L 78.113281 54.160156 C 77.703125 54.753906 77.214844 55.308594 76.691406 55.828125 C 76.503906 56.015625 76.316406 56.199219 76.089844 56.386719 C 74.253906 58.015625 71.855469 59.425781 69.269531 60.539062 C 64.996094 62.394531 60.199219 63.617188 56.5625 64.359375 M 21.027344 54.679688 C 20.953125 54.714844 20.917969 54.789062 20.839844 54.828125 L 20.765625 54.902344 C 20.691406 54.976562 20.617188 55.050781 20.578125 55.125 L 20.542969 55.160156 L 20.316406 55.496094 L 20.277344 55.53125 C 20.277344 55.570312 20.242188 55.570312 20.242188 55.605469 L 20.128906 55.828125 L 20.128906 55.902344 C 20.089844 56.015625 20.015625 56.125 19.980469 56.238281 C 19.867188 56.535156 19.753906 56.832031 19.679688 57.089844 C 19.640625 57.164062 19.640625 57.277344 19.605469 57.3125 C 19.566406 57.460938 19.53125 57.609375 19.53125 57.644531 L 19.53125 57.683594 L 19.53125 57.644531 C 19.53125 57.535156 19.53125 57.460938 19.566406 57.351562 C 19.566406 57.164062 19.605469 56.941406 19.605469 56.757812 C 19.605469 56.609375 19.640625 56.421875 19.679688 56.273438 C 19.679688 56.238281 19.679688 56.164062 19.71875 56.125 C 19.71875 56.050781 19.753906 55.976562 19.753906 55.902344 C 19.753906 55.828125 19.792969 55.753906 19.792969 55.679688 L 19.792969 55.570312 C 19.792969 55.496094 19.828125 55.382812 19.828125 55.308594 L 19.828125 55.050781 C 19.828125 55.011719 19.828125 54.976562 19.867188 54.9375 C 19.90625 54.828125 19.941406 54.679688 19.941406 54.566406 L 19.941406 54.53125 C 19.980469 54.457031 19.980469 54.34375 20.015625 54.269531 L 20.015625 54.234375 C 20.054688 54.046875 20.128906 53.863281 20.167969 53.675781 L 20.167969 53.601562 C 20.167969 53.566406 20.167969 53.527344 20.203125 53.492188 C 20.277344 53.195312 20.390625 52.898438 20.464844 52.636719 L 20.464844 52.601562 C 20.542969 52.378906 20.652344 52.121094 20.730469 51.898438 L 20.730469 51.859375 C 20.765625 51.75 20.804688 51.675781 20.839844 51.5625 C 20.917969 51.414062 20.953125 51.265625 21.027344 51.117188 C 21.027344 51.082031 21.066406 51.007812 21.140625 50.859375 C 21.179688 50.820312 21.179688 50.746094 21.214844 50.710938 C 21.253906 50.636719 21.292969 50.5625 21.328125 50.449219 L 21.367188 50.375 C 21.328125 50.339844 21.253906 50.339844 21.214844 50.300781 L 21.179688 50.300781 L 21.105469 50.265625 C 20.765625 50.117188 20.390625 49.96875 20.015625 49.855469 L 19.941406 49.855469 C 19.679688 49.78125 19.453125 49.746094 19.191406 49.707031 C 19.042969 49.707031 18.890625 49.671875 18.742188 49.671875 L 18.367188 49.671875 C 18.179688 49.671875 17.992188 49.707031 17.804688 49.707031 C 17.730469 49.707031 17.691406 49.707031 17.617188 49.746094 C 17.542969 49.746094 17.429688 49.78125 17.355469 49.78125 C 17.316406 49.78125 17.28125 49.78125 17.242188 49.820312 C 17.167969 49.820312 17.128906 49.855469 17.054688 49.855469 C 16.941406 49.894531 16.792969 49.929688 16.679688 49.96875 C 16.644531 49.96875 16.570312 50.003906 16.53125 50.003906 C 16.382812 50.078125 16.195312 50.117188 16.042969 50.191406 C 15.96875 50.226562 15.929688 50.265625 15.855469 50.265625 L 15.632812 50.375 L 15.554688 50.414062 C 15.480469 50.449219 15.40625 50.488281 15.332031 50.5625 C 15.257812 50.597656 15.179688 50.636719 15.105469 50.710938 C 15.03125 50.746094 14.957031 50.820312 14.882812 50.859375 C 14.84375 50.894531 14.769531 50.933594 14.730469 50.96875 C 14.621094 51.082031 14.46875 51.191406 14.355469 51.304688 L 14.167969 51.488281 C 14.058594 51.601562 13.980469 51.710938 13.871094 51.824219 L 13.832031 51.859375 C 13.792969 51.933594 13.71875 51.972656 13.683594 52.046875 L 13.570312 52.15625 C 13.382812 52.414062 13.195312 52.710938 13.046875 53.007812 C 13.007812 53.046875 13.007812 53.082031 12.96875 53.121094 C 12.894531 53.269531 12.859375 53.417969 12.78125 53.566406 C 12.746094 53.640625 12.746094 53.675781 12.707031 53.75 C 12.707031 53.789062 12.746094 53.824219 12.746094 53.863281 C 12.78125 54.011719 12.820312 54.121094 12.859375 54.269531 L 12.859375 54.34375 C 12.894531 54.457031 12.96875 54.605469 13.007812 54.714844 C 13.15625 55.085938 13.308594 55.421875 13.496094 55.71875 C 13.53125 55.753906 13.53125 55.792969 13.570312 55.828125 L 13.570312 55.867188 L 13.605469 55.902344 C 13.71875 56.125 13.832031 56.3125 13.945312 56.460938 C 14.132812 56.71875 14.28125 56.90625 14.394531 57.054688 L 14.46875 57.128906 C 14.46875 57.164062 14.507812 57.164062 14.507812 57.164062 L 14.582031 57.238281 C 14.582031 57.164062 14.542969 57.089844 14.542969 57.054688 C 14.433594 56.570312 14.394531 56.125 14.394531 55.644531 L 14.394531 55.570312 C 14.394531 55.273438 14.394531 54.976562 14.433594 54.714844 L 14.542969 55.050781 C 14.582031 55.199219 14.65625 55.347656 14.695312 55.496094 L 14.695312 55.570312 C 14.917969 56.199219 15.179688 56.71875 15.445312 57.128906 C 15.742188 57.644531 16.007812 57.980469 16.195312 58.203125 C 16.230469 58.238281 16.269531 58.277344 16.269531 58.3125 L 16.34375 58.386719 C 16.230469 57.867188 16.15625 57.386719 16.15625 56.90625 L 16.15625 56.421875 C 16.15625 56.199219 16.15625 56.015625 16.195312 55.828125 C 16.269531 56.164062 16.382812 56.496094 16.492188 56.792969 L 16.492188 56.832031 C 16.90625 57.90625 17.394531 58.683594 17.730469 59.167969 L 17.769531 59.203125 C 17.84375 59.277344 17.878906 59.351562 17.917969 59.425781 C 17.957031 59.464844 17.992188 59.5 17.992188 59.539062 L 18.066406 59.613281 L 18.105469 59.648438 L 18.105469 59.574219 C 18.105469 59.5 18.066406 59.425781 18.066406 59.351562 C 18.03125 59.09375 17.992188 58.832031 17.957031 58.609375 C 17.957031 58.460938 17.917969 58.277344 17.917969 58.128906 L 17.917969 57.3125 C 17.917969 57.128906 17.957031 56.90625 17.957031 56.71875 C 17.992188 56.832031 18.03125 56.980469 18.066406 57.089844 C 18.105469 57.164062 18.144531 57.277344 18.179688 57.351562 L 18.179688 57.386719 L 18.21875 57.425781 C 18.253906 57.535156 18.292969 57.644531 18.328125 57.71875 C 18.40625 57.90625 18.480469 58.089844 18.59375 58.238281 C 18.703125 58.460938 18.78125 58.648438 18.890625 58.796875 C 18.96875 58.90625 19.003906 58.980469 19.042969 59.054688 C 19.117188 59.167969 19.191406 59.277344 19.230469 59.351562 C 19.304688 59.425781 19.34375 59.5 19.378906 59.574219 L 19.417969 59.613281 C 19.453125 59.6875 19.53125 59.722656 19.566406 59.796875 C 19.605469 59.835938 19.640625 59.871094 19.640625 59.910156 C 19.71875 59.984375 19.753906 60.058594 19.792969 60.058594 L 19.828125 60.09375 L 19.828125 59.984375 C 19.867188 59.6875 19.90625 59.351562 19.941406 59.054688 L 19.941406 58.945312 C 19.980469 58.574219 20.054688 58.238281 20.128906 57.90625 C 20.128906 57.867188 20.128906 57.832031 20.167969 57.757812 L 20.167969 57.71875 C 20.167969 57.683594 20.167969 57.644531 20.203125 57.609375 C 20.203125 57.535156 20.242188 57.496094 20.242188 57.425781 C 20.277344 57.164062 20.355469 56.90625 20.390625 56.644531 C 20.429688 56.421875 20.464844 56.199219 20.503906 56.015625 L 20.503906 55.941406 C 20.503906 55.902344 20.503906 55.867188 20.542969 55.867188 L 20.542969 55.792969 C 20.542969 55.753906 20.578125 55.679688 20.578125 55.644531 C 20.578125 55.605469 20.578125 55.570312 20.617188 55.53125 C 20.617188 55.457031 20.652344 55.382812 20.652344 55.347656 C 20.652344 55.308594 20.691406 55.234375 20.691406 55.199219 C 20.691406 55.125 20.730469 55.050781 20.730469 55.011719 C 20.730469 54.976562 20.730469 54.9375 20.765625 54.902344 C 20.765625 54.863281 20.765625 54.828125 20.804688 54.828125 C 20.804688 54.753906 20.839844 54.714844 20.839844 54.679688 L 20.839844 54.566406 L 21.027344 54.679688 M 66.457031 70.183594 C 66.980469 70 67.429688 69.851562 67.804688 69.703125 C 68.519531 69.40625 68.894531 69.183594 68.894531 69.109375 C 68.855469 69.035156 68.445312 69.070312 67.695312 69.257812 C 67.320312 69.332031 66.871094 69.40625 66.308594 69.554688 C 66.042969 69.628906 65.746094 69.664062 65.445312 69.703125 C 65.144531 69.738281 64.808594 69.8125 64.46875 69.851562 C 63.796875 69.960938 63.046875 70.035156 62.222656 70.109375 L 60.984375 70.222656 C 60.574219 70.257812 60.121094 70.257812 59.671875 70.296875 C 57.875 70.332031 55.886719 70.257812 53.863281 69.886719 C 52.8125 69.703125 51.351562 69.21875 50.339844 68.664062 L 50.300781 68.625 C 50.902344 66.511719 53.152344 66.214844 53.152344 66.214844 L 53.074219 66.179688 L 52.964844 66.179688 C 52.625 66.140625 52.363281 66.105469 52.101562 66.066406 C 51.914062 66.03125 51.765625 66.03125 51.652344 65.992188 C 51.539062 65.992188 51.425781 65.957031 51.390625 65.957031 C 50.039062 65.882812 49.289062 66.996094 49.066406 67.476562 L 48.953125 67.699219 C 48.765625 68.144531 48.617188 68.625 48.578125 69.183594 C 48.503906 70.183594 48.765625 71.261719 49.550781 72.1875 C 50.078125 72.820312 50.976562 73.375 52.140625 73.820312 C 51.125 73.1875 50.226562 71.964844 50.191406 70.074219 C 51.351562 70.554688 52.664062 70.851562 53.675781 71.039062 C 55.8125 71.445312 57.910156 71.484375 59.746094 71.371094 C 60.199219 71.335938 60.683594 71.296875 61.097656 71.261719 C 61.546875 71.1875 61.960938 71.148438 62.371094 71.113281 C 63.195312 70.964844 63.910156 70.851562 64.621094 70.703125 C 64.957031 70.628906 65.296875 70.554688 65.59375 70.445312 C 65.933594 70.371094 66.195312 70.296875 66.457031 70.183594 "/>
<path style=" stroke:none;fill-rule:nonzero;fill:rgb(40.000001%,30.980393%,26.666668%);fill-opacity:1;" d="M 64.695312 45.40625 C 65.820312 45.441406 66.570312 45.777344 67.09375 46.296875 C 67.207031 45.8125 67.28125 45.21875 67.246094 44.550781 C 67.207031 43.847656 67.058594 43.214844 66.832031 42.734375 C 66.757812 42.4375 66.308594 41.660156 65.746094 41.695312 C 65.03125 41.734375 64.507812 43.105469 64.621094 44.738281 C 64.621094 44.960938 64.65625 45.183594 64.695312 45.40625 M 66.570312 49.597656 C 66.570312 49.894531 66.683594 50.152344 66.832031 50.265625 C 67.09375 50.414062 67.429688 50.117188 67.582031 49.632812 C 67.582031 49.597656 67.617188 49.558594 67.617188 49.523438 C 67.730469 49.078125 67.617188 48.632812 67.355469 48.519531 C 67.09375 48.371094 66.757812 48.667969 66.605469 49.152344 C 66.605469 49.300781 66.570312 49.449219 66.570312 49.597656 M 61.472656 50.414062 C 61.585938 50.597656 61.773438 50.785156 61.996094 50.933594 C 62.484375 51.230469 63.007812 51.265625 63.308594 51.007812 L 63.421875 50.894531 C 63.535156 50.671875 63.496094 50.375 63.308594 50.078125 C 63.195312 49.894531 63.007812 49.707031 62.785156 49.597656 C 62.296875 49.300781 61.773438 49.261719 61.507812 49.484375 C 61.472656 49.523438 61.433594 49.558594 61.398438 49.632812 C 61.285156 49.820312 61.320312 50.117188 61.472656 50.414062 M 80.101562 57.203125 C 80.0625 57.203125 80.0625 57.203125 80.101562 57.203125 M 79.5 67.476562 C 78.789062 68.144531 78 68.773438 77.101562 69.367188 C 73.242188 71.964844 67.84375 74.003906 64.019531 74.488281 C 61.132812 74.933594 58.324219 75.007812 55.886719 74.710938 C 54.460938 74.523438 53.226562 74.226562 52.140625 73.820312 C 50.976562 73.375 50.078125 72.820312 49.550781 72.1875 C 48.765625 71.261719 48.539062 70.148438 48.578125 69.183594 C 48.617188 68.664062 48.726562 68.144531 48.953125 67.699219 L 49.066406 67.476562 C 49.328125 66.996094 50.039062 65.84375 51.390625 65.957031 C 51.425781 65.957031 51.539062 65.957031 51.652344 65.992188 C 51.765625 65.992188 51.953125 66.03125 52.101562 66.066406 C 52.363281 66.105469 52.625 66.140625 52.964844 66.179688 L 53.074219 66.179688 C 56.785156 66.625 60.347656 66.585938 63.722656 66.066406 C 68.632812 65.324219 73.167969 63.582031 77.214844 60.875 C 77.4375 60.726562 77.625 60.578125 77.851562 60.429688 L 80.0625 57.164062 C 73.355469 63.210938 65.96875 64.953125 60.347656 65.289062 C 57.273438 65.472656 54.726562 65.25 53.113281 65.027344 C 53.039062 65.027344 53 65.027344 52.964844 64.992188 C 52.476562 64.917969 52.101562 64.878906 51.800781 64.84375 C 51.652344 64.84375 51.539062 64.804688 51.464844 64.804688 C 51.050781 64.769531 50.640625 64.84375 50.265625 64.953125 C 49.515625 65.175781 48.839844 65.695312 48.351562 66.363281 C 47.753906 67.179688 47.378906 68.292969 47.378906 69.40625 C 47.378906 70.332031 47.605469 71.296875 48.089844 72.1875 C 48.128906 72.226562 48.128906 72.261719 48.164062 72.300781 C 48.242188 72.410156 48.277344 72.484375 48.351562 72.597656 C 48.429688 72.707031 48.539062 72.855469 48.652344 72.96875 C 49.816406 74.414062 52.363281 75.453125 55.738281 75.898438 C 58.023438 76.195312 60.683594 76.15625 63.570312 75.75 C 72.117188 74.226562 76.164062 71.484375 78.039062 69.589844 C 78.1875 69.441406 78.300781 69.332031 78.414062 69.183594 C 79.089844 68.402344 79.386719 67.8125 79.5 67.589844 L 79.5 67.550781 C 79.539062 67.476562 79.539062 67.441406 79.539062 67.441406 L 79.5 67.476562 "/>
<path style=" stroke:none;fill-rule:nonzero;fill:rgb(91.37255%,71.764708%,51.764709%);fill-opacity:1;" d="M 52.328125 38.171875 C 52.0625 38.023438 51.765625 37.910156 51.464844 37.835938 C 51.277344 37.800781 51.089844 37.761719 50.863281 37.726562 C 50.789062 37.726562 50.714844 37.726562 50.640625 37.6875 C 49.628906 37.613281 48.765625 37.761719 48.765625 37.761719 C 48.578125 37.800781 48.390625 37.835938 48.242188 37.910156 C 46.890625 38.320312 45.953125 39.023438 45.28125 39.839844 C 44.753906 40.507812 44.378906 41.214844 44.191406 41.917969 C 44.15625 41.992188 44.15625 42.027344 44.15625 42.101562 C 44.117188 42.289062 44.042969 42.472656 44.003906 42.621094 C 43.894531 43.214844 43.816406 43.734375 43.816406 44.179688 C 43.816406 44.773438 43.855469 45.144531 43.855469 45.144531 C 44.082031 44.625 44.34375 44.179688 44.605469 43.734375 C 45.242188 42.660156 45.917969 41.769531 46.628906 41.066406 C 47.976562 39.691406 49.363281 38.949219 50.414062 38.578125 C 51.539062 38.207031 52.328125 38.171875 52.328125 38.171875 M 68.554688 36.28125 L 68.519531 36.207031 C 68.367188 36.019531 68.179688 35.835938 67.957031 35.6875 C 67.429688 35.351562 66.71875 35.167969 65.746094 35.351562 C 65.746094 35.351562 64.582031 35.613281 63.910156 36.390625 C 63.910156 36.390625 65.933594 35.539062 68.105469 37.058594 C 68.292969 37.207031 68.519531 37.355469 68.707031 37.539062 C 68.894531 37.726562 69.117188 37.910156 69.304688 38.171875 C 69.304688 38.171875 69.230469 37.242188 68.667969 36.429688 C 68.632812 36.355469 68.59375 36.316406 68.554688 36.28125 "/>
<path style=" stroke:none;fill-rule:nonzero;fill:rgb(40.000001%,30.980393%,26.666668%);fill-opacity:1;" d="M 52.589844 51.042969 C 53.375 50.820312 54.199219 50.597656 55.136719 50.375 C 55.289062 49.671875 55.324219 48.816406 55.210938 47.890625 C 54.949219 45.738281 53.976562 44.070312 53 44.179688 C 52.027344 44.292969 51.464844 46.148438 51.726562 48.296875 C 51.875 49.410156 52.175781 50.375 52.589844 51.042969 "/>
<path style=" stroke:none;fill-rule:nonzero;fill:rgb(100%,82.352942%,31.37255%);fill-opacity:1;" d="M 48.128906 2.558594 L 46.105469 3.003906 L 46.515625 6.640625 L 41.15625 3.933594 L 38.945312 4.601562 L 38.984375 4.636719 L 45.503906 11.980469 L 45.578125 11.945312 L 45.65625 11.90625 C 45.84375 11.796875 46.066406 11.648438 46.253906 11.535156 C 46.328125 11.5 46.402344 11.460938 46.480469 11.386719 C 46.777344 11.203125 47.078125 11.015625 47.378906 10.867188 L 44.605469 7.714844 L 49.066406 9.867188 C 49.214844 9.792969 49.328125 9.71875 49.476562 9.644531 L 49.066406 6.492188 L 51.089844 8.828125 L 51.125 8.828125 C 51.3125 8.753906 51.464844 8.644531 51.652344 8.570312 L 51.726562 8.53125 L 51.800781 8.496094 C 51.839844 8.496094 51.875 8.457031 51.875 8.457031 L 52.101562 8.347656 C 52.101562 8.347656 52.140625 8.347656 52.140625 8.308594 C 52.363281 8.199219 52.625 8.085938 52.851562 7.976562 L 48.128906 2.558594 "/>
<path style=" stroke:none;fill-rule:nonzero;fill:rgb(30.19608%,61.960787%,84.313726%);fill-opacity:1;" d="M 46.140625 3.117188 L 46.140625 3.003906 L 46.140625 3.117188 M 46.140625 3.003906 L 46.441406 2.929688 C 45.953125 2.707031 45.355469 2.558594 44.679688 2.449219 C 43.332031 2.261719 41.605469 2.449219 39.65625 2.929688 C 37.707031 3.414062 35.496094 4.265625 33.171875 5.414062 C 28.488281 7.714844 23.316406 11.238281 18.292969 15.765625 C 16.53125 17.324219 14.917969 18.957031 13.417969 20.550781 L 19.492188 27.96875 C 21.140625 26.1875 22.902344 24.410156 24.851562 22.664062 C 27.4375 20.328125 30.0625 18.25 32.648438 16.46875 C 35.160156 14.726562 37.671875 13.242188 40.03125 12.054688 L 38.984375 7.308594 L 39.019531 4.636719 L 38.984375 4.601562 L 41.195312 3.933594 L 45.503906 6.121094 L 45.390625 4.636719 L 46.140625 3.003906 "/>
<path style=" stroke:none;fill-rule:nonzero;fill:rgb(7.450981%,12.941177%,20.392157%);fill-opacity:1;" d="M 46.140625 3.003906 L 45.390625 4.636719 L 45.503906 6.15625 L 46.554688 6.675781 Z M 44.605469 7.714844 L 49.101562 9.90625 L 47.378906 10.867188 Z M 49.101562 6.492188 L 49.515625 9.644531 L 51.125 8.828125 Z M 49.101562 6.492188 "/>
<path style=" stroke:none;fill-rule:nonzero;fill:rgb(100%,100%,100%);fill-opacity:1;" d="M 66.042969 5.339844 L 66.871094 5.339844 C 67.617188 5.339844 68.332031 5.453125 69.003906 5.601562 C 69.042969 5.601562 69.082031 5.601562 69.117188 5.636719 L 69.15625 5.636719 L 69.230469 5.675781 L 69.304688 5.675781 C 69.230469 5.636719 69.15625 5.5625 69.082031 5.527344 C 68.332031 5.230469 67.542969 5.046875 66.71875 4.933594 C 62.671875 4.414062 58.023438 5.898438 55.398438 6.9375 C 55.25 7.011719 55.101562 7.046875 54.949219 7.121094 C 54.726562 7.234375 54.5 7.308594 54.273438 7.417969 C 53.902344 7.566406 53.527344 7.753906 53.113281 7.9375 C 53.039062 7.976562 53 7.976562 52.925781 8.011719 C 52.699219 8.125 52.4375 8.234375 52.214844 8.347656 C 52.214844 8.347656 52.175781 8.347656 52.175781 8.382812 L 51.953125 8.496094 C 51.914062 8.496094 51.875 8.53125 51.875 8.53125 L 51.726562 8.53125 L 51.6875 8.570312 C 51.5 8.644531 51.351562 8.71875 51.164062 8.828125 L 51.125 8.828125 C 51.089844 8.867188 51.050781 8.867188 51.015625 8.902344 L 50.976562 8.902344 C 50.941406 8.902344 50.902344 8.941406 50.902344 8.941406 C 50.640625 9.089844 50.378906 9.199219 50.113281 9.347656 C 49.925781 9.460938 49.738281 9.535156 49.550781 9.644531 L 49.515625 9.644531 C 49.363281 9.71875 49.253906 9.792969 49.101562 9.867188 C 48.652344 10.089844 48.242188 10.351562 47.789062 10.609375 C 47.753906 10.644531 47.714844 10.644531 47.640625 10.683594 C 47.605469 10.71875 47.566406 10.71875 47.527344 10.757812 C 47.492188 10.792969 47.453125 10.792969 47.417969 10.832031 L 47.378906 10.867188 C 47.078125 11.054688 46.777344 11.203125 46.480469 11.386719 C 46.402344 11.425781 46.328125 11.460938 46.253906 11.535156 C 46.066406 11.648438 45.84375 11.796875 45.65625 11.90625 L 45.578125 11.945312 L 45.503906 11.980469 L 43.816406 13.09375 C 42.878906 13.726562 41.980469 14.355469 41.082031 15.023438 C 40.96875 15.097656 40.855469 15.210938 40.746094 15.285156 C 38.382812 17.027344 36.132812 18.917969 33.960938 20.847656 C 31.671875 22.925781 29.460938 25.039062 27.402344 27.191406 C 26.277344 28.304688 25.300781 29.304688 24.550781 30.121094 C 22.976562 31.789062 22.117188 32.828125 22.152344 32.867188 C 22.152344 32.867188 22.304688 32.753906 22.566406 32.496094 C 22.378906 32.71875 22.152344 32.976562 21.964844 33.199219 C 25.414062 29.566406 29.199219 25.855469 33.285156 22.367188 C 35.757812 20.253906 38.34375 18.214844 41.007812 16.320312 C 42.167969 15.507812 43.367188 14.691406 44.566406 13.910156 C 44.941406 13.652344 45.355469 13.429688 45.730469 13.167969 C 45.917969 13.058594 46.105469 12.945312 46.328125 12.835938 C 46.441406 12.761719 46.554688 12.6875 46.667969 12.648438 C 46.890625 12.539062 47.078125 12.390625 47.304688 12.277344 C 47.492188 12.167969 47.714844 12.054688 47.902344 11.90625 C 48.015625 11.832031 48.128906 11.796875 48.242188 11.722656 L 49.027344 11.277344 C 49.179688 11.203125 49.328125 11.089844 49.476562 11.015625 C 49.964844 10.757812 50.453125 10.496094 50.976562 10.238281 C 51.015625 10.203125 51.050781 10.203125 51.089844 10.164062 L 51.3125 10.054688 C 51.425781 10.015625 51.5 9.941406 51.613281 9.90625 C 51.652344 9.867188 51.6875 9.867188 51.726562 9.832031 L 51.953125 9.71875 C 51.953125 9.71875 51.988281 9.71875 51.988281 9.683594 L 52.027344 9.683594 C 52.25 9.570312 52.476562 9.460938 52.664062 9.386719 C 52.699219 9.386719 52.738281 9.347656 52.777344 9.3125 L 53 9.199219 C 53.261719 9.089844 53.488281 8.976562 53.75 8.867188 C 53.824219 8.828125 53.902344 8.792969 53.9375 8.753906 C 53.976562 8.753906 54.011719 8.71875 54.050781 8.71875 C 54.125 8.679688 54.199219 8.644531 54.273438 8.644531 C 54.574219 8.53125 54.835938 8.382812 55.136719 8.273438 C 55.398438 8.160156 55.625 8.050781 55.886719 7.9375 C 57.3125 7.34375 58.625 6.863281 59.859375 6.453125 C 62.183594 5.824219 64.246094 5.414062 66.042969 5.339844 "/>
</g>
</svg>
