<?xml version="1.0" encoding="UTF-8"?>
<svg xmlns="http://www.w3.org/2000/svg" xmlns:xlink="http://www.w3.org/1999/xlink" width="84px" height="84px" viewBox="0 0 84 84" version="1.1">
<g id="surface1">
<path style=" stroke:none;fill-rule:nonzero;fill:rgb(34.901962%,58.823532%,21.176471%);fill-opacity:1;" d="M 38.65625 10.921875 L 40.476562 14.339844 C 40.886719 14.972656 41.332031 15.53125 41.851562 16.050781 C 43.382812 17.5625 44.8125 19.175781 46.125 20.878906 C 49.210938 24.929688 51.289062 29.429688 52.777344 34.292969 C 53.667969 37.265625 54.152344 40.3125 54.1875 43.394531 C 54.335938 52.609375 51.175781 60.523438 44.808594 67.097656 C 43.769531 68.140625 42.652344 69.097656 41.460938 69.957031 C 40.828125 69.957031 40.53125 69.476562 40.269531 69.03125 C 39.796875 68.203125 39.484375 67.296875 39.34375 66.355469 C 39.117188 65.238281 38.972656 64.125 39.042969 62.972656 L 39.042969 62.453125 C 38.992188 62.34375 38.4375 11.183594 38.65625 10.921875 Z M 38.65625 10.921875 "/>
<path style=" stroke:none;fill-rule:nonzero;fill:rgb(42.352942%,67.450982%,28.235295%);fill-opacity:1;" d="M 38.65625 10.808594 C 38.582031 10.660156 38.507812 10.773438 38.433594 10.84375 C 38.46875 11.589844 38.210938 12.253906 37.804688 12.890625 C 37.355469 13.523438 36.761719 14.003906 36.167969 14.527344 C 32.863281 17.386719 30.261719 20.839844 28.179688 24.707031 C 25.410156 29.90625 23.980469 35.480469 23.578125 41.351562 C 23.390625 43.46875 24.246094 50.9375 24.914062 53.089844 C 26.734375 58.8125 30.003906 63.605469 34.238281 67.769531 C 35.277344 68.769531 36.390625 69.699219 37.542969 70.59375 C 37.878906 70.59375 37.914062 70.292969 37.992188 70.070312 C 38.136719 69.597656 38.25 69.113281 38.324219 68.621094 L 39.070312 63.050781 Z M 38.65625 10.808594 "/>
<path style=" stroke:none;fill-rule:nonzero;fill:rgb(76.078433%,74.901962%,74.901962%);fill-opacity:1;" d="M 40.476562 72.222656 C 40.550781 71.371094 40.960938 70.664062 41.40625 69.957031 C 40.960938 69.769531 40.628906 69.402344 40.367188 68.992188 C 40.144531 68.601562 39.957031 68.191406 39.8125 67.765625 C 39.292969 66.207031 39.183594 64.566406 39.03125 62.972656 L 39.03125 62.007812 C 38.847656 62.15625 38.808594 63.417969 38.808594 63.605469 C 38.699219 65.292969 38.476562 66.96875 38.140625 68.621094 C 38.027344 69.292969 37.953125 69.957031 37.542969 70.554688 C 37.542969 70.628906 37.542969 70.703125 37.578125 70.8125 C 38.25 72.785156 38.433594 74.789062 38.542969 76.832031 L 38.542969 77.578125 C 38.542969 78.46875 38.507812 78.28125 39.25 78.582031 C 39.546875 78.691406 39.878906 78.730469 40.175781 78.953125 C 40.402344 78.953125 40.4375 78.765625 40.4375 78.617188 L 40.328125 77.390625 L 40.328125 73.972656 C 40.289062 73.375 40.402344 72.785156 40.476562 72.226562 Z M 40.476562 72.222656 "/>
</g>
</svg>
