<?xml version="1.0" encoding="UTF-8"?>
<svg xmlns="http://www.w3.org/2000/svg" xmlns:xlink="http://www.w3.org/1999/xlink" width="64px" height="79px" viewBox="0 0 64 78" version="1.1">
<g id="surface1">
<path style=" stroke:none;fill-rule:nonzero;fill:rgb(0%,83.137256%,52.549022%);fill-opacity:1;" d="M 32.003906 74.804688 C 31.027344 74.808594 30.074219 74.554688 29.230469 74.074219 L 20.40625 68.90625 C 19.085938 68.175781 19.730469 67.917969 20.164062 67.769531 C 21.566406 67.339844 22.90625 66.742188 24.15625 65.984375 L 31.59375 70.015625 L 58.859375 54.917969 L 59.261719 24.011719 L 32.410156 8.207031 L 5.164062 23.296875 L 4.746094 54.199219 L 12.414062 59.035156 C 16.34375 60.980469 18.753906 58.691406 18.753906 56.390625 L 18.753906 26.585938 C 18.753906 26.164062 19.097656 25.820312 19.527344 25.820312 L 22.875 25.820312 C 23.304688 25.820312 23.648438 26.164062 23.648438 26.585938 L 23.648438 56.394531 C 23.648438 61.582031 20.792969 64.550781 15.820312 64.550781 C 13.671875 64.585938 11.5625 64.019531 9.730469 62.914062 L 2.777344 58.96875 C 1.0625 57.980469 0.00390625 56.164062 0.00390625 54.199219 L 0.00390625 24.011719 C 0 22.042969 1.058594 20.21875 2.777344 19.230469 L 29.222656 4.128906 C 30.957031 3.191406 33.050781 3.191406 34.78125 4.128906 L 61.222656 19.230469 C 62.941406 20.21875 64 22.035156 64 24 L 64 54.199219 C 63.996094 56.164062 62.941406 57.980469 61.222656 58.96875 L 34.78125 74.074219 C 33.9375 74.554688 32.976562 74.808594 32.003906 74.804688 Z M 32.003906 74.804688 "/>
<path style=" stroke:none;fill-rule:nonzero;fill:rgb(0%,83.137256%,52.549022%);fill-opacity:1;" d="M 26.988281 44.09375 C 26.988281 43.671875 27.332031 43.328125 27.761719 43.328125 L 31.179688 43.328125 C 32.457031 47.414062 34.003906 49.148438 40.996094 49.148438 C 46.5625 49.148438 48.9375 47.902344 48.9375 44.980469 C 48.9375 43.292969 48.265625 42.042969 39.609375 41.203125 C 32.371094 40.496094 27.898438 38.910156 27.898438 33.1875 C 27.898438 27.910156 32.394531 24.761719 39.933594 24.761719 C 48.40625 24.761719 52.597656 27.671875 53.128906 33.914062 C 53.144531 34.125 53.074219 34.332031 52.929688 34.488281 C 52.785156 34.644531 52.582031 34.734375 52.367188 34.734375 L 48.925781 34.734375 C 47.359375 30.523438 45.347656 29.363281 39.9375 29.363281 C 33.851562 29.363281 33.148438 31.460938 33.148438 33.03125 C 33.148438 34.933594 33.980469 35.488281 42.191406 36.5625 C 50.320312 37.625 54.179688 39.128906 54.179688 44.777344 C 54.179688 50.476562 49.375 53.742188 40.996094 53.742188 C 29.414062 53.757812 26.988281 48.503906 26.988281 44.09375 Z M 26.988281 44.09375 "/>
</g>
</svg>
