<?xml version="1.0" encoding="UTF-8"?>
<svg xmlns="http://www.w3.org/2000/svg" xmlns:xlink="http://www.w3.org/1999/xlink" width="84px" height="50px" viewBox="0 0 83 50" version="1.1">
<g id="surface1">
<path style=" stroke:none;fill-rule:nonzero;fill:rgb(2.352941%,71.372551%,83.137256%);fill-opacity:1;" d="M 41.5 0 C 30.4375 0 23.523438 5.554688 20.757812 16.664062 C 24.90625 11.109375 29.746094 9.027344 35.277344 10.417969 C 38.433594 11.207031 40.6875 13.507812 43.1875 16.054688 C 47.253906 20.199219 51.960938 25 62.242188 25 C 73.304688 25 80.21875 19.445312 82.984375 8.332031 C 78.835938 13.886719 73.996094 15.972656 68.464844 14.582031 C 65.308594 13.792969 63.054688 11.492188 60.554688 8.945312 C 56.488281 4.800781 51.78125 0 41.5 0 Z M 20.757812 25 C 9.695312 25 2.78125 30.554688 0.015625 41.667969 C 4.164062 36.109375 9.003906 34.027344 14.535156 35.417969 C 17.691406 36.210938 19.945312 38.507812 22.445312 41.054688 C 26.511719 45.199219 31.21875 50 41.5 50 C 52.5625 50 59.476562 44.445312 62.242188 33.332031 C 58.09375 38.886719 53.253906 40.972656 47.722656 39.582031 C 44.566406 38.792969 42.3125 36.488281 39.8125 33.945312 C 35.746094 29.800781 31.039062 25 20.757812 25 Z M 20.757812 25 "/>
</g>
</svg>
