<?xml version="1.0" encoding="UTF-8"?>
<svg xmlns="http://www.w3.org/2000/svg" xmlns:xlink="http://www.w3.org/1999/xlink" width="84px" height="90px" viewBox="0 0 84 90" version="1.1">
<g id="surface1">
<path style=" stroke:none;fill-rule:nonzero;fill:rgb(89.803922%,35.686275%,17.647059%);fill-opacity:1;" d="M 48 13.84375 L 48 27.691406 L 71.996094 41.535156 L 71.996094 27.691406 Z M 0.0078125 27.691406 L 0.0078125 41.535156 L 12.007812 48.460938 L 12.007812 34.613281 Z M 36 34.613281 L 24.003906 41.535156 L 24.003906 83.074219 L 36 90 L 36 62.308594 L 48 69.230469 L 48 55.386719 L 36 48.464844 Z M 36 34.613281 "/>
<path style=" stroke:none;fill-rule:nonzero;fill:rgb(92.941177%,55.686277%,14.117648%);fill-opacity:1;" d="M 48 13.84375 L 12.007812 34.613281 L 12.007812 48.460938 L 36.003906 34.613281 L 36.003906 48.460938 L 48.003906 41.535156 L 48.003906 13.84375 Z M 83.992188 20.769531 L 71.992188 27.691406 L 71.992188 41.535156 L 83.992188 34.613281 Z M 59.996094 48.464844 L 48 55.386719 L 48 69.230469 L 59.996094 62.308594 Z M 48 69.230469 L 36 62.308594 L 36 90 L 48 83.078125 Z M 48 69.230469 "/>
<path style=" stroke:none;fill-rule:nonzero;fill:rgb(97.254902%,74.901962%,23.529412%);fill-opacity:1;" d="M 48 0 L 0.0078125 27.691406 L 12.007812 34.613281 L 48 13.84375 L 71.996094 27.691406 L 83.996094 20.769531 Z M 48 41.535156 L 36 48.460938 L 48 55.382812 L 59.996094 48.460938 Z M 48 41.535156 "/>
</g>
</svg>
