<?xml version="1.0" encoding="UTF-8"?>
<svg xmlns="http://www.w3.org/2000/svg" xmlns:xlink="http://www.w3.org/1999/xlink" width="84px" height="84px" viewBox="0 0 84 84" version="1.1">
<g id="surface1">
<path style=" stroke:none;fill-rule:nonzero;fill:rgb(100%,29.019609%,0%);fill-opacity:1;" d="M 52.5 42.019531 C 52.5 45.046875 51.953125 48.050781 50.886719 50.886719 C 48.050781 51.953125 45.046875 52.5 42.015625 52.5 L 41.980469 52.5 C 38.863281 52.496094 35.871094 51.925781 33.113281 50.886719 C 32.046875 48.050781 31.5 45.046875 31.5 42.019531 L 31.5 41.980469 C 31.5 38.953125 32.042969 35.949219 33.109375 33.117188 C 35.945312 32.046875 38.953125 31.5 41.980469 31.5 L 42.015625 31.5 C 45.046875 31.5 48.050781 32.046875 50.886719 33.117188 C 51.957031 35.949219 52.5 38.953125 52.5 41.980469 Z M 83.417969 35 L 58.902344 35 L 76.234375 17.664062 C 74.875 15.753906 73.355469 13.957031 71.699219 12.300781 L 71.699219 12.296875 C 70.039062 10.640625 68.246094 9.125 66.335938 7.765625 L 49 25.101562 L 49 0.585938 C 46.691406 0.195312 44.359375 0 42.019531 0 L 41.976562 0 C 39.597656 0 37.269531 0.203125 35 0.585938 L 35 25.101562 L 17.664062 7.765625 C 15.753906 9.125 13.960938 10.640625 12.304688 12.300781 L 12.292969 12.308594 C 10.636719 13.964844 9.121094 15.757812 7.761719 17.664062 L 25.101562 35 L 0.585938 35 C 0.585938 35 0 39.605469 0 41.984375 L 0 42.015625 C 0 44.394531 0.203125 46.730469 0.585938 49 L 25.101562 49 L 7.765625 66.335938 C 10.492188 70.164062 13.835938 73.507812 17.664062 76.234375 L 35 58.898438 L 35 83.417969 C 37.304688 83.800781 39.632812 83.996094 41.96875 84 L 42.027344 84 C 44.363281 83.996094 46.695312 83.804688 49 83.417969 L 49 58.898438 L 66.335938 76.234375 C 68.246094 74.875 70.039062 73.359375 71.699219 71.703125 L 71.703125 71.699219 C 73.359375 70.039062 74.875 68.246094 76.234375 66.335938 L 58.898438 49 L 83.417969 49 C 83.796875 46.734375 83.996094 44.40625 84 42.03125 L 84 41.96875 C 83.996094 39.59375 83.796875 37.265625 83.417969 35 Z M 83.417969 35 "/>
</g>
</svg>
